<?xml version="1.0" encoding="utf-8"?>
<!-- Generator: Adobe Illustrator 25.4.1, SVG Export Plug-In . SVG Version: 6.00 Build 0)  -->
<svg version="1.1" id="Layer_1" xmlns="http://www.w3.org/2000/svg" xmlns:xlink="http://www.w3.org/1999/xlink" x="0px" y="0px"
	 viewBox="0 0 1166.6 512" style="enable-background:new 0 0 1166.6 512;" xml:space="preserve">
<style type="text/css">
	.st0{fill:#444444;}
</style>
<path class="st0" d="M352,512C197.4,512,0,314.6,0,160c-0.3-33.6,12.9-66,36.6-89.8l67.6-67.6l133.6,133.7l-72.7,72.7
	c26.2,62.2,75.6,111.7,137.7,138l72.8-72.8l133.7,133.7l-67.7,67.7C417.9,499.1,385.6,512.3,352,512z M104.3,63l-37.5,37.5
	c-15.7,15.8-24.4,37.3-24.1,59.6C42.7,293,219,469.3,352,469.3c22.3,0.3,43.7-8.4,59.6-24.1l37.5-37.5l-73.3-73.3l-62.4,62.4
	l-12.9-4.9c-83.3-31-149-96.6-180.2-179.9l-5.2-13.1l62.6-62.6L104.3,63z"/>
<g id="_01_align_center">
	<path class="st0" d="M1108,44H596v426.7h512V44z M638.7,86.6h426.7v14.2L897.3,269c-25,24.9-65.5,24.9-90.5,0L638.7,100.9V86.6z
		 M638.7,428V161.3l137.9,137.8c41.7,41.6,109.2,41.6,150.9,0l137.9-137.8V428H638.7z"/>
</g>
</svg>
