<svg id="Layer_1" data-name="Layer 1" xmlns="http://www.w3.org/2000/svg" viewBox="0 0 202.86 79.33"><defs><clipPath id="clip-path"><path fill="none" d="M0 0h202.86v77.64H0z"/></clipPath><style>.cls-5{fill:#0087ca}.cls-8{fill:#292a2a}</style></defs><path d="M37.7 3.31a1.75 1.75 0 00-1.23.5L3.81 36.48a1.73 1.73 0 000 2.44l32.66 32.67a1.78 1.78 0 002.45 0l32.66-32.67a1.73 1.73 0 000-2.44L38.92 3.81a1.74 1.74 0 00-1.22-.5m0 72.09a5 5 0 01-3.57-1.47L1.47 41.26a5 5 0 010-7.12L34.13 1.47a5 5 0 017.12 0l32.67 32.67a5 5 0 010 7.12L41.25 73.93a5 5 0 01-3.55 1.47" fill="#44c7f4"/><path d="M57.61 29.13H64a1.64 1.64 0 001.64-1.64v-16.1A1.63 1.63 0 0064 9.76H47.9a1.63 1.63 0 00-1.63 1.63v6.33a1.63 1.63 0 001.63 1.63h2.76a1.64 1.64 0 011.16 2.79l-8.13 8.13 1.43 1.44 8.09-8.09A1.64 1.64 0 0156 24.8v2.67a1.64 1.64 0 001.63 1.66" fill="#8e4f9e"/><path class="cls-5" d="M23.62 22.19a1.63 1.63 0 011.17-2.79h2.68a1.63 1.63 0 001.65-1.63v-6.4a1.63 1.63 0 00-1.63-1.63h-16.1a1.63 1.63 0 00-1.64 1.63v16.1a1.63 1.63 0 001.64 1.63h6.39a1.64 1.64 0 001.64-1.65v-2.67a1.63 1.63 0 012.79-1.17l8.09 8.08 1.43-1.44z"/><path d="M22.14 51.82a1.63 1.63 0 01-2.79-1.15v-2.76a1.64 1.64 0 00-1.64-1.64h-6.32a1.64 1.64 0 00-1.64 1.64V64a1.64 1.64 0 001.64 1.64h16.1A1.64 1.64 0 0029.12 64v-6.32a1.63 1.63 0 00-1.63-1.63h-2.75a1.63 1.63 0 01-1.16-2.79l8.13-8.13-1.44-1.44z" fill="#f9a51a"/><path d="M51.82 53.26a1.64 1.64 0 01-1.16 2.79H47.9a1.63 1.63 0 00-1.63 1.63V64a1.63 1.63 0 001.63 1.63H64A1.63 1.63 0 0065.64 64V47.91A1.63 1.63 0 0064 46.28h-6.32a1.63 1.63 0 00-1.63 1.63v2.76a1.63 1.63 0 01-2.79 1.15l-8.14-8.13-1.43 1.44z" fill="#e3404b"/><path class="cls-8" d="M93.37 6.85h-6.58V3.71h16.75v3.14H96.9v16.97h-3.53V6.85zM106 2.6h3.36v9h.06a6.58 6.58 0 014.47-1.8 4.78 4.78 0 013.61 1.44c.81.86 1.17 2 1.17 4v8.5h-3.36V15.9a3.27 3.27 0 00-.56-2.33 2.19 2.19 0 00-1.78-.75 5.27 5.27 0 00-3.61 1.72v9.28H106zm25.93 12.97a3.21 3.21 0 00-3.28-3 3.52 3.52 0 00-3.53 3zm-6.81 2.33c.42 2.28 2.22 3.44 4.53 3.44a8.14 8.14 0 004.66-1.58v3.08a9.9 9.9 0 01-5 1.28c-4.38 0-7.6-2.83-7.6-7.11a6.91 6.91 0 017-7.16c3.38 0 6.38 2.3 6.38 6.69a9.57 9.57 0 01-.09 1.36zM94.68 37.49a5.82 5.82 0 003.5-.8 2.78 2.78 0 00-.42-4.59 8 8 0 00-3.76-.55h-2.13v5.94zm-6.33-9.08h5.86a11.89 11.89 0 015.63 1 5.34 5.34 0 012.89 4.89 5.49 5.49 0 01-4.47 5.52l6.06 8.7h-4.14l-5.61-8.31h-2.7v8.31h-3.52zm26.52 11.86a3.2 3.2 0 00-3.28-3 3.51 3.51 0 00-3.52 3zm-6.8 2.33c.41 2.28 2.22 3.45 4.52 3.45a8.08 8.08 0 004.67-1.59v3.09a10 10 0 01-5 1.27c-4.39 0-7.61-2.83-7.61-7.11a6.91 6.91 0 017-7.16c3.39 0 6.39 2.3 6.39 6.69a11.32 11.32 0 01-.08 1.36zm12.77 1.95a10.85 10.85 0 005.31 1.52c1.53 0 2.5-.44 2.5-1.47 0-1.36-1.75-1.3-3.84-1.75-2.61-.55-4.38-1.47-4.38-3.94 0-2.86 2.5-4.36 5.77-4.36a11.69 11.69 0 015.06 1.08v3.06a11 11 0 00-5.06-1.39c-1.44 0-2.38.41-2.38 1.36 0 1.28 1.72 1.25 3.74 1.66 2.62.56 4.48 1.39 4.48 4 0 3.09-2.73 4.5-5.95 4.5a12.23 12.23 0 01-5.25-1.14zm23.56-4.28a3.2 3.2 0 00-3.28-3 3.52 3.52 0 00-3.53 3zm-6.81 2.33c.42 2.28 2.22 3.45 4.53 3.45a8.13 8.13 0 004.67-1.59v3.09a10.05 10.05 0 01-5 1.27c-4.39 0-7.61-2.83-7.61-7.11a6.91 6.91 0 017-7.16c3.38 0 6.39 2.3 6.39 6.69a9.5 9.5 0 01-.09 1.36zM158 43a8.59 8.59 0 00-2.11-.28c-1.38 0-2.75.44-2.75 1.78 0 1.11 1 1.64 2.17 1.64a4.75 4.75 0 002.69-.84zm.53 4.5a6.59 6.59 0 01-4.05 1.3 5.41 5.41 0 01-3.17-.91 3.79 3.79 0 01-1.53-3.14 3.9 3.9 0 011.75-3.31 7 7 0 013.84-.94 11.64 11.64 0 012.63.3V40a2.42 2.42 0 00-.66-1.86 3.39 3.39 0 00-2.31-.67 7.8 7.8 0 00-4.03 1.24v-3.05a9.5 9.5 0 014.61-1.11 6.88 6.88 0 014.39 1.27 4.48 4.48 0 011.44 3.64v5.25c0 .75.28 1.28 1 1.28a1.77 1.77 0 00.75-.19v2.63a4 4 0 01-1.67.34 3.39 3.39 0 01-2.8-1.25zm7.03-12.65h3.33v1.92h.06a4.76 4.76 0 014-2.09 3.23 3.23 0 01.92.12v3.22a4.05 4.05 0 00-1.11-.14 4.47 4.47 0 00-3.81 2v8.58h-3.36zm21.36 12.94a9 9 0 01-4.28 1c-4.38 0-7.55-3-7.55-7.08 0-4.28 3.44-7.19 7.72-7.19a8.82 8.82 0 013.89.89v3.27a7.2 7.2 0 00-3.83-1.25 4.21 4.21 0 100 8.42 6.55 6.55 0 004-1.36zm3.28-20.49h3.36v9h.06a6.63 6.63 0 014.47-1.8 4.78 4.78 0 013.61 1.5c.8.86 1.16 2 1.16 4v8.5h-3.36v-7.9a3.28 3.28 0 00-.55-2.33 2.21 2.21 0 00-1.78-.75 5.27 5.27 0 00-3.61 1.72v9.28h-3.36zm-102.27 41a11.63 11.63 0 006.25 2.09c2 0 3.44-.87 3.44-2.73 0-2.22-2.11-2.52-4.72-3.3-2.8-.86-5.44-2.14-5.44-5.72s2.72-5.83 6.77-5.83a12.39 12.39 0 016 1.47v3.55a11.72 11.72 0 00-6-1.89c-1.89 0-3.22.75-3.22 2.45 0 2.14 2.11 2.41 4.52 3.16 3 .92 5.64 2.23 5.64 5.92s-2.83 6-7 6A13.79 13.79 0 0187.93 72zm22.66 2.28a4.2 4.2 0 10-4-4.19 4 4 0 004 4.19m0-11.33a7.14 7.14 0 11-7.41 7.14 7.14 7.14 0 017.41-7.14M132 72.5a9.16 9.16 0 01-4.28 1c-4.39 0-7.55-3-7.55-7.08 0-4.27 3.44-7.19 7.72-7.19a8.82 8.82 0 013.89.89v3.27a7.22 7.22 0 00-3.78-1.22 4.21 4.21 0 10.06 8.41 6.59 6.59 0 004-1.36zm3.29-12.95h3.36v13.67h-3.36zm1.71-6.61a2.09 2.09 0 11-2.13 2.06 2.1 2.1 0 012.13-2.06M152 65a3.2 3.2 0 00-3.28-3 3.51 3.51 0 00-3.52 3zm-6.8 2.33c.41 2.28 2.22 3.45 4.52 3.45a8.11 8.11 0 004.67-1.59v3.09a10 10 0 01-5 1.27c-4.39 0-7.61-2.83-7.61-7.11a6.91 6.91 0 017-7.16c3.39 0 6.39 2.3 6.39 6.69a11.19 11.19 0 01-.17 1.33z"/><g clip-path="url(#clip-path)"><path class="cls-8" d="M166.31 72.88a5.91 5.91 0 01-2.78.64 4.38 4.38 0 01-3.33-1.33c-.69-.75-1.11-1.89-1.11-3.92v-5.86h-2.39v-2.86h2.39v-3.63l3.36-.59v4.22h3.86v2.86h-3.86v5.39c0 1.53.28 2.81 1.81 2.81a4.49 4.49 0 002.05-.59zm3.25 6.45l3.64-7.61-5.64-12.17h3.64l1.86 4.23c.7 1.58 1.25 2.86 1.83 4.3h.11c.64-1.53 1.33-3.08 2-4.58l1.78-4h3.41l-9.08 19.78z"/></g><path class="cls-5" d="M51.27 36L39.45 24.12a2.55 2.55 0 00-3.51 0L24.12 36a2.48 2.48 0 000 3.51l11.82 11.77a2.47 2.47 0 003.51 0l11.82-11.82a2.48 2.48 0 000-3.51"/></svg>