<?xml version="1.0" encoding="utf-8"?>
<!-- Generator: Adobe Illustrator 16.0.0, SVG Export Plug-In . SVG Version: 6.00 Build 0)  -->
<!DOCTYPE svg PUBLIC "-//W3C//DTD SVG 1.1//EN" "http://www.w3.org/Graphics/SVG/1.1/DTD/svg11.dtd">
<svg version="1.1" xmlns="http://www.w3.org/2000/svg" xmlns:xlink="http://www.w3.org/1999/xlink" x="0px" y="0px"
	 width="558.667px" height="263.333px" viewBox="0 0 558.667 263.333" enable-background="new 0 0 558.667 263.333"
	 xml:space="preserve">
<g id="Layer_1">
	<g>
		<g>
			<path fill="#808285" d="M175.18,152.113v-58.35c5.524-0.563,13.359-0.846,23.505-0.846c8.793,0,14.81,1.353,18.052,4.059
				c3.24,2.706,4.861,7.863,4.861,15.473c0,7.497-1.509,12.612-4.523,15.351c-3.016,2.739-8.413,4.107-16.191,4.107
				c-2.875,0-6.144-0.197-9.808-0.592v20.799H175.18z M191.075,120.312h7.271c2.875,0,4.819-0.535,5.834-1.606
				c1.015-1.07,1.521-3.156,1.521-6.257c0-3.156-0.507-5.27-1.521-6.341c-1.015-1.07-2.959-1.606-5.834-1.606h-7.271V120.312z"/>
			<path fill="#808285" d="M226.924,120.988l-1.353-9.977c7.44-1.408,15.105-2.114,22.997-2.114c5.919,0,10.315,1.226,13.19,3.678
				c2.875,2.452,4.312,6.694,4.312,12.725v26.813h-12.175l-1.437-6.172c-4.059,4.849-9.047,7.271-14.965,7.271
				c-4.115,0-7.497-1.057-10.146-3.171c-2.65-2.113-3.974-5.059-3.974-8.835v-4.228c0-3.325,1.197-5.947,3.594-7.867
				c2.395-1.919,5.678-2.88,9.85-2.88h13.951v-1.017c-0.057-1.803-0.494-3.057-1.311-3.763c-0.818-0.704-2.325-1.057-4.523-1.057
				C239.465,120.396,233.462,120.595,226.924,120.988z M238.423,137.571v1.438c0,2.255,1.38,3.382,4.143,3.382
				c2.48,0,5.213-0.958,8.202-2.875v-5.242h-8.793C239.607,134.33,238.423,135.43,238.423,137.571z"/>
			<path fill="#808285" d="M304.626,108.897l-1.353,14.12h-4.059c-2.819,0-6.68,0.592-11.583,1.775v27.32h-15.39v-42.032h12.007
				l1.354,6.172c5.467-4.904,11.047-7.356,16.74-7.356H304.626z"/>
			<path fill="#808285" d="M334.303,135.119h-12.598c0.394,2.312,1.196,3.903,2.409,4.777c1.212,0.874,3.171,1.311,5.876,1.311
				c5.129,0,10.625-0.339,16.487-1.015l1.353,9.385c-4.679,2.367-11.189,3.551-19.53,3.551c-8.286,0-14.191-1.746-17.714-5.242
				c-3.522-3.494-5.284-9.018-5.284-16.572c0-8.24,1.733-14.031,5.2-17.386c3.467-3.353,9.313-5.031,17.544-5.031
				c7.384,0,12.71,1.226,15.979,3.678c3.269,2.452,4.932,6.187,4.989,11.203c0.055,3.951-1.044,6.831-3.298,8.635
				C343.462,134.218,339.657,135.119,334.303,135.119z M321.366,127.164h8.624c1.747,0,2.889-0.267,3.425-0.804
				c0.535-0.536,0.803-1.51,0.803-2.919c0-1.634-0.423-2.733-1.268-3.297c-0.846-0.563-2.34-0.845-4.481-0.845
				c-2.65-0.056-4.453,0.423-5.411,1.437C322.099,121.749,321.535,123.892,321.366,127.164z"/>
			<path fill="#808285" d="M365.754,110.082l1.268,6.172c5.75-4.904,11.611-7.356,17.588-7.356c4,0,7.029,1.001,9.088,3.001
				c2.057,2.001,3.086,4.918,3.086,8.751v31.463h-15.387V125.47c0-1.354-0.254-2.284-0.762-2.791s-1.41-0.761-2.705-0.761
				c-2.426,0-5.441,0.733-9.047,2.198v27.997h-15.389v-42.032H365.754z"/>
			<path fill="#808285" d="M422.57,119.72v17.766c0,1.353,0.296,2.298,0.888,2.832c0.592,0.537,1.62,0.804,3.086,0.804h4.904
				l1.691,10.146c-3.213,1.297-7.609,1.945-13.19,1.945c-4.003,0-7.131-1.044-9.385-3.129c-2.255-2.084-3.382-5.016-3.382-8.793
				V119.72h-7.271v-9.216l7.187-0.338V98.751h15.473v11.33h10.822v9.639H422.57z"/>
			<path fill="#808285" d="M452.586,152.113h-15.304v-42.032h15.304V152.113z"/>
			<path fill="#808285" d="M471.692,110.082l1.269,6.172c5.75-4.904,11.611-7.356,17.587-7.356c4.001,0,7.03,1.001,9.089,3.001
				c2.057,2.001,3.086,4.918,3.086,8.751v31.463h-15.388V125.47c0-1.354-0.254-2.284-0.762-2.791
				c-0.507-0.507-1.409-0.761-2.705-0.761c-2.425,0-5.44,0.733-9.047,2.198v27.997h-15.388v-42.032H471.692z"/>
			<path fill="#808285" d="M553.366,116.169l-4.819,0.676c0.508,1.636,0.762,3.439,0.762,5.411c0,4.907-1.537,8.367-4.608,10.369
				c-3.072,2.001-8.441,3.001-16.106,3.001c-2.706,0-4.961-0.112-6.764-0.338c-0.621,0.733-0.733,1.606-0.339,2.621
				c0.394,1.015,1.324,1.606,2.79,1.775l15.304,1.353c4.565,0.396,7.849,1.621,9.851,3.679c2,2.058,3.001,5.115,3.001,9.173
				c0,5.581-1.705,9.301-5.115,11.161c-3.411,1.86-9.484,2.79-18.221,2.79c-6.257,0-11.063-0.423-14.415-1.269
				c-3.354-0.846-5.652-2.101-6.892-3.763c-1.24-1.663-1.859-4.072-1.859-7.229c0-2.143,0.492-3.902,1.479-5.284
				c0.985-1.381,2.69-2.606,5.115-3.678c-1.917-1.973-2.636-4.325-2.156-7.061c0.479-2.733,1.846-4.692,4.101-5.876
				c-4.51-1.916-6.764-5.698-6.764-11.341c0-4.904,1.564-8.37,4.692-10.399s8.553-3.044,16.275-3.044
				c4.679,0,8.54,0.395,11.584,1.184h13.866L553.366,116.169z M531.299,150.507l-8.877-0.761c-1.354,1.015-2.029,2.228-2.029,3.636
				c0,1.521,0.549,2.508,1.648,2.959c1.099,0.45,3.396,0.677,6.891,0.677c3.663,0,6.088-0.212,7.271-0.635
				c1.184-0.422,1.775-1.31,1.775-2.663c0-1.184-0.452-1.958-1.353-2.325C535.724,151.029,533.948,150.733,531.299,150.507z
				 M528.594,126.741c2.479,0,4.171-0.31,5.073-0.932c0.9-0.62,1.353-1.804,1.353-3.552c0-1.747-0.452-2.917-1.353-3.509
				c-0.902-0.592-2.594-0.888-5.073-0.888c-2.537,0-4.27,0.296-5.2,0.888c-0.93,0.592-1.395,1.762-1.395,3.509
				c0,1.748,0.465,2.932,1.395,3.552C524.324,126.431,526.057,126.741,528.594,126.741z"/>
		</g>
	</g>
	<g>
		<path fill="#4995D1" d="M98.298,69.667c-5.064,0-9.185,4.121-9.185,9.186s4.12,9.185,9.185,9.185s9.185-4.12,9.185-9.185
			S103.363,69.667,98.298,69.667z"/>
		<path fill="#4995D1" d="M146.961,37.573c-10.896-8.821-31.195-13.235-60.905-13.235c-34.214,0-68.885,2.097-68.885,2.097
			c-5.49,0.332-9.982,5.104-9.982,10.604v166.377c0,5.501,4.501,10.001,10.001,10.001h38.609c5.5,0,9.986-4.5,9.971-10.001
			l-0.135-46.299c12.23,7.479,20.258,1.607,23.158-1.281c-6.699-2.467-13.092-5.84-18.505-10.232
			c-9.717-7.885-15.063-15.944-16.797-18.829c-1.904,0.339-3.857,0.526-5.854,0.526c-4.593,0-9.389-0.908-14.206-2.786
			c-3.088-1.205-4.615-4.684-3.412-7.77c1.204-3.088,4.681-4.613,7.77-3.413c11.801,4.6,22.438,1.106,27.756-9.121
			c1.528-2.938,5.151-4.083,8.092-2.555c2.939,1.528,4.084,5.151,2.555,8.092c-2.805,5.393-6.696,9.618-11.296,12.577
			c2.036,3.004,6.261,8.527,12.954,13.959c13.265,10.762,34.961,14.553,48.27,12c0.11-0.021,0.22-0.031,0.329-0.047
			c9.382-3.352,16.927-7.65,21.73-11.854c10.082-8.823,15.124-25.113,15.124-49.424C163.302,62.295,157.855,46.398,146.961,37.573z
			 M98.298,100.037c-11.682,0-21.185-9.503-21.185-21.185s9.503-21.186,21.185-21.186s21.185,9.504,21.185,21.186
			S109.98,100.037,98.298,100.037z"/>
	</g>
	<path fill="#E33C96" d="M191.127,145.456c-5.352-6.656-16.871-11.898-34.563-15.729c-20.374-4.414-41.289-7.632-41.289-7.632
		c-3.313-0.51-6.603,1.754-7.311,5.032l-21.432,99.077c-0.708,3.275,1.392,6.535,4.667,7.242l22.992,4.975
		c3.275,0.707,6.527-1.395,7.226-4.672l5.883-27.588c5.955,5.682,11.212,3.824,13.556,2.463c-3.519-2.59-5.888-5.147-7.048-6.532
		c-4.102-4.893-5.933-11.012-6.009-11.27c-0.131-0.447-0.164-0.895-0.142-1.334c-0.489,0.047-1.001,0.074-1.538,0.074
		c-2.802,0-6.244-0.703-10.294-2.787c-1.965-1.012-2.737-3.424-1.727-5.387c1.012-1.965,3.424-2.74,5.387-1.727
		c3.635,1.871,6.798,2.377,9.149,1.465c2.45-0.949,3.794-3.379,4.488-5.25c0.769-2.07,3.07-3.125,5.143-2.357
		c2.071,0.77,3.126,3.072,2.357,5.143c-1.344,3.617-3.42,6.432-6.082,8.303c0.417,0.443,0.75,0.977,0.933,1.6
		c0.012,0.039,1.461,4.805,4.465,8.389c3.012,3.592,11.289,11.614,24.932,11.716c5.92-0.797,10.895-2.359,14.254-4.221
		c7.14-3.95,12.24-13.001,15.373-27.478C197.674,162.282,196.479,152.116,191.127,145.456z M161.806,169.556c-2.209,0-4-1.791-4-4
		c0-3.822-3.426-6.932-7.637-6.932c-1.678,0-3.27,0.486-4.603,1.402c-1.82,1.254-4.311,0.793-5.563-1.027
		c-1.253-1.82-0.793-4.311,1.027-5.563c2.674-1.84,5.833-2.813,9.138-2.813c8.622,0,15.637,6.699,15.637,14.932
		C165.806,167.765,164.015,169.556,161.806,169.556z"/>
	<g>
		<path fill="#808285" d="M175.18,85.64V27.3c5.524-0.563,13.359-0.846,23.505-0.846c8.793,0,14.81,1.353,18.052,4.059
			c3.24,2.706,4.861,7.863,4.861,15.473c0,7.497-1.509,12.612-4.523,15.346c-3.016,2.735-8.413,4.101-16.191,4.101
			c-2.875,0-6.144-0.197-9.808-0.592V85.64H175.18z M191.075,53.849h7.271c2.875,0,4.819-0.535,5.834-1.606
			c1.015-1.07,1.521-3.156,1.521-6.257c0-3.156-0.507-5.27-1.521-6.341c-1.015-1.07-2.959-1.606-5.834-1.606h-7.271V53.849z"/>
		<path fill="#808285" d="M258.123,42.435l-1.353,14.12h-4.059c-2.819,0-6.679,0.592-11.583,1.775v27.31H225.74V43.619h12.006
			l1.353,6.172c5.467-4.904,11.047-7.356,16.741-7.356H258.123z"/>
		<path fill="#808285" d="M265.477,24.679h6.679c2.93,0,4.396,1.522,4.396,4.566v4.396c0,2.988-1.466,4.481-4.396,4.481h-6.679
			c-2.988,0-4.481-1.493-4.481-4.481v-4.396C260.996,26.201,262.489,24.679,265.477,24.679z M276.468,85.64h-15.303V43.619h15.303
			V85.64z"/>
		<path fill="#808285" d="M295.408,43.619l1.268,6.172c4.904-4.904,10.062-7.356,15.473-7.356c5.692,0,9.301,2.171,10.822,6.51
			c4.566-4.339,9.44-6.51,14.627-6.51c7.948,0,11.922,3.918,11.922,11.752V85.64h-15.304V59.006c0-1.296-0.253-2.211-0.761-2.748
			c-0.507-0.535-1.409-0.803-2.705-0.803c-1.805,0-4.115,0.733-6.934,2.198V85.64h-14.796V59.006c0-1.296-0.283-2.211-0.846-2.748
			c-0.564-0.535-1.467-0.803-2.706-0.803c-1.859,0-4.143,0.676-6.848,2.029V85.64h-15.304V43.619H295.408z"/>
		<path fill="#808285" d="M357.382,54.525l-1.353-9.977c7.439-1.408,15.105-2.114,22.998-2.114c5.918,0,10.314,1.226,13.189,3.678
			c2.875,2.452,4.313,6.694,4.313,12.725V85.64h-12.176l-1.438-6.172c-4.059,4.849-9.047,7.271-14.965,7.271
			c-4.115,0-7.498-1.057-10.146-3.17c-2.65-2.114-3.974-5.059-3.974-8.835v-4.228c0-3.325,1.197-5.946,3.594-7.863
			c2.394-1.916,5.677-2.875,9.849-2.875h13.951v-1.015c-0.057-1.803-0.494-3.057-1.311-3.763c-0.818-0.704-2.324-1.057-4.523-1.057
			C369.924,53.934,363.92,54.132,357.382,54.525z M368.881,71.097v1.438c0,2.255,1.381,3.382,4.143,3.382
			c2.48,0,5.213-0.958,8.201-2.875V67.8h-8.793C370.064,67.856,368.881,68.956,368.881,71.097z"/>
		<path fill="#808285" d="M435.082,42.435l-1.353,14.12h-4.059c-2.819,0-6.68,0.592-11.583,1.775v27.31H402.7V43.619h12.006
			l1.353,6.172c5.467-4.904,11.047-7.356,16.741-7.356H435.082z"/>
		<path fill="#808285" d="M479.215,43.619L465.18,85.217c-0.621,1.916-1.367,3.72-2.24,5.411c-0.875,1.691-2.044,3.438-3.509,5.242
			c-1.467,1.803-3.129,3.213-4.988,4.228c-1.86,1.015-4.059,1.831-6.595,2.452c-2.537,0.619-5.356,0.592-8.455-0.085l-1.1-8.54
			c6.313-1.409,10.484-4.172,12.514-8.286h-2.706c-2.536,0-4.172-1.211-4.903-3.636l-12.937-38.385h16.318l6.257,25.026
			c0.338,1.691,0.731,4.087,1.184,7.187h0.93c0.394-1.465,0.958-3.86,1.691-7.187l6.257-25.026H479.215z"/>
	</g>
	<g>
		<path fill="#4995D1" d="M241.806,217.407l0.106,1.17c-0.837,0.336-2.022,0.504-3.555,0.504c-1.474,0-2.494-0.393-3.06-1.179
			s-0.743-2.007-0.531-3.663c0.224-1.692,0.681-2.847,1.371-3.465s1.825-0.927,3.405-0.927c1.344,0,2.258,0.24,2.741,0.72
			s0.66,1.188,0.531,2.124c-0.142,0.852-0.472,1.467-0.991,1.845s-1.315,0.609-2.388,0.693l-2.989,0.27
			c-0.012,0.828,0.159,1.39,0.513,1.684c0.354,0.294,0.908,0.44,1.663,0.44C239.424,217.623,240.485,217.551,241.806,217.407z
			 M236.553,214.203l2.883-0.27c0.542-0.036,0.938-0.153,1.185-0.352s0.407-0.543,0.478-1.035c0.071-0.563-0.021-0.911-0.274-1.044
			c-0.254-0.132-0.77-0.197-1.548-0.197c-0.896,0-1.53,0.188-1.901,0.566C237.004,212.25,236.73,213.027,236.553,214.203z"/>
		<path fill="#4995D1" d="M249.464,214.329l2.175,4.536h-1.715l-1.804-3.888h-0.389l-2.883,3.888h-1.91l3.467-4.554l-2.017-4.23
			h1.716l1.592,3.546h0.478l2.635-3.546h1.857L249.464,214.329z"/>
		<path fill="#4995D1" d="M255.689,210.081l-0.088,1.872c0.554-0.576,1.179-1.067,1.875-1.476c0.695-0.408,1.332-0.612,1.91-0.612
			c1.037,0,1.733,0.336,2.087,1.008c0.354,0.673,0.413,1.908,0.177,3.708c-0.13,0.984-0.313,1.782-0.548,2.395
			c-0.236,0.611-0.542,1.07-0.919,1.377c-0.377,0.306-0.767,0.507-1.167,0.603s-0.914,0.145-1.539,0.145
			c-0.813,0-1.722-0.078-2.724-0.234c0,0.54-0.042,1.098-0.124,1.674l-0.301,1.926h-1.715l1.733-12.384H255.689z M255.619,213.285
			l-0.602,4.356c0.554,0.012,1.161,0.018,1.822,0.018c0.613,0,1.079-0.029,1.397-0.09c0.318-0.06,0.599-0.21,0.84-0.45
			c0.241-0.24,0.416-0.558,0.521-0.954c0.106-0.396,0.212-0.966,0.318-1.71c0.165-1.308,0.186-2.147,0.062-2.52
			c-0.124-0.372-0.451-0.559-0.981-0.559c-0.389,0-0.891,0.169-1.503,0.504C256.88,212.218,256.255,212.686,255.619,213.285z"/>
		<path fill="#4995D1" d="M270.403,217.407l0.107,1.17c-0.838,0.336-2.023,0.504-3.556,0.504c-1.474,0-2.494-0.393-3.06-1.179
			s-0.743-2.007-0.531-3.663c0.224-1.692,0.681-2.847,1.371-3.465s1.825-0.927,3.404-0.927c1.344,0,2.258,0.24,2.742,0.72
			c0.482,0.479,0.66,1.188,0.529,2.124c-0.141,0.852-0.471,1.467-0.99,1.845c-0.518,0.378-1.314,0.609-2.387,0.693l-2.989,0.27
			c-0.012,0.828,0.159,1.39,0.513,1.684c0.354,0.294,0.908,0.44,1.662,0.44C268.022,217.623,269.083,217.551,270.403,217.407z
			 M265.151,214.203l2.883-0.27c0.541-0.036,0.938-0.153,1.186-0.352c0.246-0.198,0.406-0.543,0.477-1.035
			c0.07-0.563-0.021-0.911-0.273-1.044c-0.254-0.132-0.77-0.197-1.549-0.197c-0.896,0-1.529,0.188-1.9,0.566
			C265.602,212.25,265.328,213.027,265.151,214.203z"/>
		<path fill="#4995D1" d="M279.282,209.848l-0.425,1.638h-0.478c-0.448,0-0.907,0.135-1.379,0.405
			c-0.472,0.27-1.149,0.729-2.034,1.377l-0.761,5.598h-1.715l1.22-8.784h1.309l-0.088,2.017c1.438-1.5,2.735-2.25,3.891-2.25
			H279.282z"/>
		<path fill="#4995D1" d="M282.819,211.432l-0.689,4.932c-0.06,0.42-0.021,0.705,0.114,0.854c0.136,0.15,0.41,0.226,0.822,0.226
			h1.292l0.07,1.35c-0.519,0.156-1.191,0.234-2.017,0.234c-0.767,0-1.317-0.216-1.653-0.648c-0.336-0.432-0.451-1.05-0.345-1.854
			l0.707-5.094h-1.574l0.159-1.261l1.61-0.09l0.371-2.574h1.68l-0.354,2.574h2.653l-0.177,1.351H282.819z"/>
		<path fill="#4995D1" d="M297.357,218.865h-1.344l0.07-1.62c-1.038,1.224-2.275,1.836-3.714,1.836c-1.05,0-1.757-0.348-2.123-1.044
			c-0.365-0.695-0.43-1.92-0.194-3.672c0.13-0.972,0.313-1.767,0.549-2.385c0.235-0.618,0.548-1.077,0.938-1.377
			c0.389-0.3,0.789-0.501,1.202-0.604c0.413-0.102,0.943-0.152,1.592-0.152c1.403,0,2.813,0.155,4.227,0.468L297.357,218.865z
			 M296.066,215.697l0.619-4.356c-1.085-0.023-1.692-0.035-1.822-0.035c-0.613,0-1.078,0.029-1.396,0.09
			c-0.318,0.06-0.599,0.213-0.841,0.459c-0.241,0.246-0.418,0.561-0.53,0.944c-0.112,0.385-0.221,0.948-0.327,1.692
			c-0.165,1.309-0.186,2.148-0.062,2.521c0.123,0.372,0.462,0.558,1.017,0.558c0.542,0,1.072-0.153,1.592-0.459
			C294.834,216.805,295.418,216.333,296.066,215.697z"/>
		<path fill="#4995D1" d="M309.065,206.266l-1.733,12.6h-1.344l0.088-1.836c-1.227,1.368-2.529,2.052-3.908,2.052
			c-0.908,0-1.551-0.356-1.928-1.071c-0.378-0.713-0.448-1.929-0.213-3.645c0.142-0.972,0.327-1.767,0.558-2.385
			c0.229-0.618,0.53-1.077,0.901-1.377c0.372-0.3,0.752-0.501,1.141-0.604c0.39-0.102,0.885-0.152,1.486-0.152
			c0.884,0,1.821,0.078,2.812,0.233c0-0.407,0.042-0.966,0.124-1.674l0.301-2.142H309.065z M306.059,215.661l0.584-4.338
			c-0.531-0.023-1.15-0.036-1.857-0.036c-0.59,0-1.041,0.03-1.353,0.09c-0.313,0.061-0.59,0.21-0.832,0.45
			c-0.241,0.24-0.415,0.558-0.521,0.954c-0.106,0.396-0.212,0.966-0.318,1.71c-0.165,1.248-0.188,2.073-0.07,2.475
			c0.117,0.402,0.441,0.604,0.973,0.604c0.53,0,1.049-0.146,1.556-0.441C304.726,216.834,305.339,216.346,306.059,215.661z"/>
		<path fill="#4995D1" d="M316.652,210.081h1.769c-0.318,1.692-0.831,3.372-1.539,5.04c-0.495,1.177-0.973,2.082-1.433,2.718
			c-0.247,0.36-0.501,0.621-0.76,0.783c-0.26,0.162-0.619,0.243-1.079,0.243h-1.468c-0.318,0-0.508-0.156-0.566-0.468l-1.662-8.316
			h1.786l1.256,7.416h0.265c0.236,0,0.425-0.036,0.566-0.107c0.142-0.072,0.289-0.217,0.442-0.433
			c0.342-0.456,0.754-1.302,1.237-2.538C315.986,213.147,316.381,211.701,316.652,210.081z"/>
		<path fill="#4995D1" d="M320.826,218.865h-1.698l1.203-8.784h1.697L320.826,218.865z M321.25,206.337h0.813
			c0.165,0,0.289,0.049,0.372,0.145c0.082,0.096,0.111,0.228,0.088,0.396l-0.123,1.008c-0.048,0.324-0.225,0.486-0.531,0.486h-0.813
			c-0.354,0-0.513-0.186-0.478-0.558l0.159-1.008C320.761,206.493,320.932,206.337,321.25,206.337z"/>
		<path fill="#4995D1" d="M329.987,217.425l0.124,1.188c-0.884,0.312-1.898,0.468-3.042,0.468c-1.521,0-2.553-0.359-3.095-1.08
			c-0.543-0.72-0.696-1.92-0.46-3.6c0.224-1.68,0.684-2.859,1.38-3.537c0.695-0.678,1.786-1.017,3.271-1.017
			c1.155,0,2.099,0.155,2.83,0.468l-0.266,1.08c-0.707-0.048-1.474-0.072-2.299-0.072c-1.038,0-1.784,0.213-2.237,0.639
			c-0.454,0.427-0.758,1.281-0.911,2.565s-0.086,2.121,0.203,2.511c0.289,0.391,0.923,0.585,1.901,0.585
			C328.39,217.623,329.257,217.558,329.987,217.425z"/>
		<path fill="#4995D1" d="M338.848,217.407l0.106,1.17c-0.838,0.336-2.022,0.504-3.556,0.504c-1.474,0-2.493-0.393-3.06-1.179
			c-0.565-0.786-0.742-2.007-0.53-3.663c0.224-1.692,0.681-2.847,1.371-3.465c0.689-0.618,1.824-0.927,3.404-0.927
			c1.344,0,2.258,0.24,2.741,0.72s0.66,1.188,0.53,2.124c-0.142,0.852-0.472,1.467-0.99,1.845s-1.314,0.609-2.388,0.693l-2.988,0.27
			c-0.013,0.828,0.158,1.39,0.513,1.684c0.354,0.294,0.907,0.44,1.662,0.44C336.466,217.623,337.527,217.551,338.848,217.407z
			 M333.595,214.203l2.883-0.27c0.542-0.036,0.938-0.153,1.186-0.352c0.247-0.198,0.406-0.543,0.478-1.035
			c0.07-0.563-0.021-0.911-0.274-1.044c-0.254-0.132-0.77-0.197-1.548-0.197c-0.896,0-1.529,0.188-1.901,0.566
			C334.046,212.25,333.771,213.027,333.595,214.203z"/>
		<path fill="#4995D1" d="M352.254,218.865h-1.344l0.07-1.62c-1.038,1.224-2.275,1.836-3.714,1.836c-1.05,0-1.757-0.348-2.123-1.044
			c-0.365-0.695-0.43-1.92-0.194-3.672c0.13-0.972,0.313-1.767,0.549-2.385c0.235-0.618,0.548-1.077,0.938-1.377
			c0.389-0.3,0.789-0.501,1.202-0.604c0.413-0.102,0.943-0.152,1.592-0.152c1.403,0,2.813,0.155,4.227,0.468L352.254,218.865z
			 M350.963,215.697l0.619-4.356c-1.085-0.023-1.692-0.035-1.822-0.035c-0.613,0-1.078,0.029-1.396,0.09
			c-0.318,0.06-0.599,0.213-0.841,0.459c-0.241,0.246-0.418,0.561-0.53,0.944c-0.112,0.385-0.221,0.948-0.327,1.692
			c-0.165,1.309-0.186,2.148-0.062,2.521c0.123,0.372,0.462,0.558,1.017,0.558c0.542,0,1.072-0.153,1.592-0.459
			C349.73,216.805,350.314,216.333,350.963,215.697z"/>
		<path fill="#4995D1" d="M357.241,210.081l-0.089,1.891c1.557-1.416,2.918-2.124,4.086-2.124c0.73,0,1.285,0.213,1.662,0.639
			s0.507,1.035,0.39,1.827l-0.92,6.552h-1.698l0.831-6.12c0.071-0.552,0.051-0.927-0.062-1.125s-0.356-0.297-0.734-0.297
			c-0.483,0-0.987,0.15-1.512,0.45s-1.212,0.792-2.061,1.476l-0.761,5.616h-1.715l1.22-8.784H357.241z"/>
		<path fill="#4995D1" d="M374.043,206.266l-1.733,12.6h-1.344l0.088-1.836c-1.227,1.368-2.529,2.052-3.908,2.052
			c-0.908,0-1.551-0.356-1.928-1.071c-0.378-0.713-0.448-1.929-0.213-3.645c0.142-0.972,0.327-1.767,0.558-2.385
			c0.229-0.618,0.53-1.077,0.901-1.377c0.372-0.3,0.752-0.501,1.141-0.604c0.39-0.102,0.885-0.152,1.486-0.152
			c0.884,0,1.821,0.078,2.812,0.233c0-0.407,0.042-0.966,0.124-1.674l0.301-2.142H374.043z M371.036,215.661l0.584-4.338
			c-0.531-0.023-1.15-0.036-1.857-0.036c-0.59,0-1.041,0.03-1.353,0.09c-0.313,0.061-0.59,0.21-0.832,0.45
			c-0.241,0.24-0.415,0.558-0.521,0.954c-0.106,0.396-0.212,0.966-0.318,1.71c-0.165,1.248-0.188,2.073-0.07,2.475
			c0.117,0.402,0.441,0.604,0.973,0.604c0.53,0,1.049-0.146,1.556-0.441C369.703,216.834,370.316,216.346,371.036,215.661z"/>
		<path fill="#4995D1" d="M387.272,210.315l-1.168,8.334c-0.307,2.616-2.01,3.941-5.111,3.978c-1.202,0-2.157-0.114-2.865-0.342
			l0.178-1.152c0.931,0.024,1.845,0.03,2.741,0.019c1.945-0.024,3.054-0.738,3.325-2.143c0.2-1.02,0.447-1.751,0.742-2.195
			c-0.483,0.672-1.082,1.218-1.795,1.638c-0.714,0.42-1.488,0.63-2.326,0.63c-0.967,0-1.645-0.348-2.033-1.044
			c-0.39-0.695-0.46-1.92-0.213-3.672c0.142-0.983,0.33-1.785,0.566-2.403c0.235-0.617,0.542-1.076,0.92-1.377
			c0.377-0.3,0.757-0.497,1.141-0.594c0.383-0.096,0.875-0.144,1.477-0.144c1.509,0,2.972,0.155,4.386,0.468H387.272z
			 M384.778,215.697l0.619-4.356c-1.085-0.023-1.71-0.035-1.875-0.035c-1.12,0-1.86,0.183-2.22,0.549s-0.634,1.245-0.822,2.637
			c-0.165,1.284-0.186,2.118-0.062,2.502s0.457,0.576,0.999,0.576c0.554,0,1.091-0.15,1.609-0.45S384.13,216.346,384.778,215.697z"
			/>
		<path fill="#4995D1" d="M397.158,210.081l-1.203,8.784h-1.326l0.106-1.836c-1.403,1.38-2.712,2.07-3.927,2.07
			c-0.778,0-1.344-0.22-1.697-0.657c-0.354-0.438-0.478-1.035-0.372-1.791l0.902-6.57h1.716l-0.867,6.12
			c-0.07,0.517-0.035,0.879,0.106,1.089s0.412,0.315,0.813,0.315c0.483,0,0.955-0.145,1.415-0.433s1.09-0.792,1.893-1.512
			l0.742-5.58H397.158z"/>
		<path fill="#4995D1" d="M400.147,218.865h-1.698l1.203-8.784h1.697L400.147,218.865z M400.571,206.337h0.813
			c0.165,0,0.289,0.049,0.372,0.145c0.082,0.096,0.111,0.228,0.088,0.396l-0.123,1.008c-0.048,0.324-0.225,0.486-0.531,0.486h-0.813
			c-0.354,0-0.513-0.186-0.478-0.558l0.159-1.008C400.082,206.493,400.253,206.337,400.571,206.337z"/>
		<path fill="#4995D1" d="M411.926,206.266l-1.733,12.6h-1.344l0.088-1.836c-1.227,1.368-2.529,2.052-3.908,2.052
			c-0.908,0-1.551-0.356-1.928-1.071c-0.378-0.713-0.448-1.929-0.213-3.645c0.142-0.972,0.327-1.767,0.558-2.385
			c0.229-0.618,0.53-1.077,0.901-1.377c0.372-0.3,0.752-0.501,1.141-0.604c0.39-0.102,0.885-0.152,1.486-0.152
			c0.884,0,1.821,0.078,2.812,0.233c0-0.407,0.042-0.966,0.124-1.674l0.301-2.142H411.926z M408.919,215.661l0.584-4.338
			c-0.531-0.023-1.15-0.036-1.857-0.036c-0.59,0-1.041,0.03-1.353,0.09c-0.313,0.061-0.59,0.21-0.832,0.45
			c-0.241,0.24-0.415,0.558-0.521,0.954c-0.106,0.396-0.212,0.966-0.318,1.71c-0.165,1.248-0.188,2.073-0.07,2.475
			c0.117,0.402,0.441,0.604,0.973,0.604c0.53,0,1.049-0.146,1.556-0.441C407.586,216.834,408.199,216.346,408.919,215.661z"/>
		<path fill="#4995D1" d="M420.167,218.865h-1.344l0.07-1.62c-1.038,1.224-2.275,1.836-3.714,1.836c-1.05,0-1.757-0.348-2.123-1.044
			c-0.365-0.695-0.43-1.92-0.194-3.672c0.13-0.972,0.313-1.767,0.549-2.385c0.235-0.618,0.548-1.077,0.938-1.377
			c0.389-0.3,0.789-0.501,1.202-0.604c0.413-0.102,0.943-0.152,1.592-0.152c1.403,0,2.813,0.155,4.227,0.468L420.167,218.865z
			 M418.876,215.697l0.619-4.356c-1.085-0.023-1.692-0.035-1.822-0.035c-0.613,0-1.078,0.029-1.396,0.09
			c-0.318,0.06-0.599,0.213-0.841,0.459c-0.241,0.246-0.418,0.561-0.53,0.944c-0.112,0.385-0.221,0.948-0.327,1.692
			c-0.165,1.309-0.186,2.148-0.062,2.521c0.123,0.372,0.462,0.558,1.017,0.558c0.542,0,1.072-0.153,1.592-0.459
			C417.644,216.805,418.228,216.333,418.876,215.697z"/>
		<path fill="#4995D1" d="M425.155,210.081l-0.089,1.891c1.557-1.416,2.918-2.124,4.086-2.124c0.73,0,1.285,0.213,1.662,0.639
			s0.507,1.035,0.39,1.827l-0.92,6.552h-1.698l0.831-6.12c0.071-0.552,0.051-0.927-0.062-1.125s-0.356-0.297-0.734-0.297
			c-0.483,0-0.987,0.15-1.512,0.45s-1.212,0.792-2.061,1.476l-0.761,5.616h-1.715l1.22-8.784H425.155z"/>
		<path fill="#4995D1" d="M439.339,217.425l0.124,1.188c-0.884,0.312-1.898,0.468-3.042,0.468c-1.521,0-2.553-0.359-3.095-1.08
			c-0.543-0.72-0.696-1.92-0.46-3.6c0.224-1.68,0.684-2.859,1.38-3.537c0.695-0.678,1.786-1.017,3.271-1.017
			c1.155,0,2.099,0.155,2.83,0.468l-0.266,1.08c-0.707-0.048-1.474-0.072-2.299-0.072c-1.038,0-1.784,0.213-2.237,0.639
			c-0.454,0.427-0.758,1.281-0.911,2.565s-0.086,2.121,0.203,2.511c0.289,0.391,0.923,0.585,1.901,0.585
			C437.741,217.623,438.608,217.558,439.339,217.425z"/>
		<path fill="#4995D1" d="M448.199,217.407l0.106,1.17c-0.838,0.336-2.022,0.504-3.556,0.504c-1.474,0-2.493-0.393-3.06-1.179
			c-0.565-0.786-0.742-2.007-0.53-3.663c0.224-1.692,0.681-2.847,1.371-3.465c0.689-0.618,1.824-0.927,3.404-0.927
			c1.344,0,2.258,0.24,2.741,0.72s0.66,1.188,0.53,2.124c-0.142,0.852-0.472,1.467-0.99,1.845s-1.314,0.609-2.388,0.693l-2.988,0.27
			c-0.013,0.828,0.158,1.39,0.513,1.684c0.354,0.294,0.907,0.44,1.662,0.44C445.817,217.623,446.879,217.551,448.199,217.407z
			 M442.946,214.203l2.883-0.27c0.542-0.036,0.938-0.153,1.186-0.352c0.247-0.198,0.406-0.543,0.478-1.035
			c0.07-0.563-0.021-0.911-0.274-1.044c-0.254-0.132-0.77-0.197-1.548-0.197c-0.896,0-1.529,0.188-1.901,0.566
			C443.397,212.25,443.123,213.027,442.946,214.203z"/>
		<path fill="#4995D1" d="M460.951,207.381h-1.698c-0.555,0-0.952,0.094-1.193,0.279c-0.242,0.187-0.404,0.562-0.486,1.125
			l-0.195,1.296h2.671l-0.177,1.351h-2.671l-1.167,8.441c-0.236,1.716-1.174,2.574-2.813,2.574c-0.637,0-1.35-0.048-2.14-0.144
			l0.266-1.297h1.326c0.554,0,0.949-0.093,1.185-0.278c0.236-0.187,0.396-0.562,0.478-1.125l1.132-8.172h-1.538l0.159-1.261
			l1.574-0.09l0.212-1.565c0.235-1.704,1.179-2.557,2.83-2.557c1.144,0,1.986,0.042,2.528,0.126L460.951,207.381z"/>
		<path fill="#4995D1" d="M465.16,209.848c1.485,0,2.512,0.362,3.077,1.089c0.566,0.726,0.731,1.929,0.495,3.608
			c-0.224,1.656-0.689,2.829-1.396,3.52c-0.708,0.69-1.787,1.035-3.237,1.035c-1.474,0-2.496-0.363-3.068-1.09
			c-0.572-0.726-0.746-1.923-0.521-3.591c0.224-1.655,0.687-2.832,1.389-3.527C462.599,210.195,463.687,209.848,465.16,209.848z
			 M465.16,211.323c-0.908,0-1.571,0.223-1.989,0.666c-0.419,0.444-0.717,1.296-0.894,2.556c-0.165,1.213-0.121,2.031,0.133,2.457
			c0.253,0.427,0.816,0.64,1.688,0.64c0.92,0,1.586-0.231,1.999-0.693c0.412-0.462,0.701-1.305,0.866-2.529
			c0.177-1.212,0.139-2.03-0.114-2.457C466.596,211.536,466.032,211.323,465.16,211.323z"/>
		<path fill="#4995D1" d="M476.922,209.848l-0.425,1.638h-0.478c-0.448,0-0.907,0.135-1.379,0.405
			c-0.472,0.27-1.149,0.729-2.034,1.377l-0.761,5.598h-1.715l1.22-8.784h1.309l-0.088,2.017c1.438-1.5,2.735-2.25,3.891-2.25
			H476.922z"/>
		<path fill="#4995D1" d="M487.126,217.425l0.124,1.188c-0.884,0.312-1.898,0.468-3.042,0.468c-1.521,0-2.553-0.359-3.095-1.08
			c-0.543-0.72-0.696-1.92-0.46-3.6c0.224-1.68,0.684-2.859,1.38-3.537c0.695-0.678,1.786-1.017,3.271-1.017
			c1.155,0,2.099,0.155,2.83,0.468l-0.266,1.08c-0.707-0.048-1.474-0.072-2.299-0.072c-1.038,0-1.784,0.213-2.237,0.639
			c-0.454,0.427-0.758,1.281-0.911,2.565s-0.086,2.121,0.203,2.511c0.289,0.391,0.923,0.585,1.901,0.585
			C485.528,217.623,486.396,217.558,487.126,217.425z"/>
		<path fill="#4995D1" d="M496.323,218.865h-1.344l0.07-1.62c-1.038,1.224-2.275,1.836-3.714,1.836c-1.05,0-1.757-0.348-2.123-1.044
			c-0.365-0.695-0.43-1.92-0.194-3.672c0.13-0.972,0.313-1.767,0.549-2.385c0.235-0.618,0.548-1.077,0.938-1.377
			c0.389-0.3,0.789-0.501,1.202-0.604c0.413-0.102,0.943-0.152,1.592-0.152c1.403,0,2.813,0.155,4.227,0.468L496.323,218.865z
			 M495.032,215.697l0.619-4.356c-1.085-0.023-1.692-0.035-1.822-0.035c-0.613,0-1.078,0.029-1.396,0.09
			c-0.318,0.06-0.599,0.213-0.841,0.459c-0.241,0.246-0.418,0.561-0.53,0.944c-0.112,0.385-0.221,0.948-0.327,1.692
			c-0.165,1.309-0.186,2.148-0.062,2.521c0.123,0.372,0.462,0.558,1.017,0.558c0.542,0,1.072-0.153,1.592-0.459
			C493.8,216.805,494.384,216.333,495.032,215.697z"/>
		<path fill="#4995D1" d="M505.52,209.848l-0.425,1.638h-0.478c-0.448,0-0.907,0.135-1.379,0.405
			c-0.472,0.27-1.149,0.729-2.034,1.377l-0.761,5.598h-1.715l1.22-8.784h1.309l-0.088,2.017c1.438-1.5,2.735-2.25,3.891-2.25H505.52
			z"/>
		<path fill="#4995D1" d="M512.788,217.407l0.106,1.17c-0.838,0.336-2.022,0.504-3.556,0.504c-1.474,0-2.493-0.393-3.06-1.179
			c-0.565-0.786-0.742-2.007-0.53-3.663c0.224-1.692,0.681-2.847,1.371-3.465c0.689-0.618,1.824-0.927,3.404-0.927
			c1.344,0,2.258,0.24,2.741,0.72s0.66,1.188,0.53,2.124c-0.142,0.852-0.472,1.467-0.99,1.845s-1.314,0.609-2.388,0.693l-2.988,0.27
			c-0.013,0.828,0.158,1.39,0.513,1.684c0.354,0.294,0.907,0.44,1.662,0.44C510.406,217.623,511.468,217.551,512.788,217.407z
			 M507.535,214.203l2.883-0.27c0.542-0.036,0.938-0.153,1.186-0.352c0.247-0.198,0.406-0.543,0.478-1.035
			c0.07-0.563-0.021-0.911-0.274-1.044c-0.254-0.132-0.77-0.197-1.548-0.197c-0.896,0-1.529,0.188-1.901,0.566
			C507.986,212.25,507.712,213.027,507.535,214.203z"/>
		<path fill="#4995D1" d="M521.667,209.848l-0.425,1.638h-0.478c-0.448,0-0.907,0.135-1.379,0.405
			c-0.472,0.27-1.149,0.729-2.034,1.377l-0.761,5.598h-1.715l1.22-8.784h1.309l-0.088,2.017c1.438-1.5,2.735-2.25,3.891-2.25
			H521.667z"/>
		<path fill="#4995D1" d="M526.229,215.589l-2.316-1.08c-0.648-0.312-1.108-0.662-1.38-1.053c-0.271-0.39-0.365-0.891-0.283-1.503
			c0.095-0.804,0.431-1.361,1.009-1.674c0.577-0.312,1.456-0.456,2.635-0.432c1.332,0.023,2.564,0.126,3.696,0.306l-0.212,1.242
			c-1.497-0.048-2.642-0.078-3.431-0.09c-0.778,0-1.301,0.042-1.565,0.126c-0.266,0.084-0.422,0.3-0.469,0.647
			c-0.035,0.3,0.021,0.522,0.168,0.666c0.147,0.145,0.434,0.313,0.857,0.504l2.335,1.08c0.707,0.336,1.19,0.682,1.45,1.035
			c0.259,0.354,0.348,0.854,0.266,1.503c-0.048,0.396-0.148,0.729-0.301,0.999c-0.153,0.271-0.334,0.483-0.54,0.639
			c-0.206,0.156-0.489,0.276-0.849,0.36s-0.714,0.138-1.062,0.162c-0.348,0.023-0.793,0.036-1.335,0.036
			c-0.566,0-1.011-0.009-1.335-0.027c-0.325-0.018-0.685-0.054-1.079-0.107c-0.396-0.055-0.705-0.094-0.929-0.117l0.194-1.296
			c0.66,0.06,1.563,0.09,2.706,0.09c1.085,0,1.815-0.061,2.193-0.181c0.377-0.119,0.596-0.359,0.654-0.72
			c0.012-0.06,0.018-0.12,0.018-0.18c0-0.061-0.003-0.111-0.009-0.153s-0.023-0.084-0.053-0.126s-0.054-0.078-0.071-0.107
			c-0.018-0.03-0.05-0.063-0.097-0.1c-0.048-0.036-0.089-0.065-0.124-0.09c-0.035-0.023-0.089-0.054-0.159-0.09
			s-0.127-0.063-0.168-0.081c-0.042-0.019-0.106-0.048-0.194-0.09C526.362,215.646,526.289,215.613,526.229,215.589z"/>
		<path fill="#4995D1" d="M539.211,209.848c1.485,0,2.512,0.362,3.077,1.089c0.566,0.726,0.731,1.929,0.495,3.608
			c-0.224,1.656-0.689,2.829-1.396,3.52c-0.708,0.69-1.787,1.035-3.237,1.035c-1.474,0-2.496-0.363-3.068-1.09
			c-0.572-0.726-0.746-1.923-0.521-3.591c0.224-1.655,0.687-2.832,1.389-3.527C536.649,210.195,537.737,209.848,539.211,209.848z
			 M539.211,211.323c-0.908,0-1.571,0.223-1.989,0.666c-0.419,0.444-0.717,1.296-0.894,2.556c-0.165,1.213-0.121,2.031,0.133,2.457
			c0.253,0.427,0.816,0.64,1.688,0.64c0.92,0,1.586-0.231,1.999-0.693c0.412-0.462,0.701-1.305,0.866-2.529
			c0.177-1.212,0.139-2.03-0.114-2.457C540.646,211.536,540.083,211.323,539.211,211.323z"/>
		<path fill="#4995D1" d="M551.309,207.381h-1.698c-0.555,0-0.952,0.094-1.193,0.279c-0.242,0.187-0.404,0.562-0.486,1.125
			l-0.195,1.296h2.671l-0.177,1.351h-2.671l-1.167,8.441c-0.236,1.716-1.174,2.574-2.813,2.574c-0.637,0-1.35-0.048-2.14-0.144
			l0.266-1.297h1.326c0.554,0,0.949-0.093,1.185-0.278c0.236-0.187,0.396-0.562,0.478-1.125l1.132-8.172h-1.538l0.159-1.261
			l1.574-0.09l0.212-1.565c0.235-1.704,1.179-2.557,2.83-2.557c1.144,0,1.986,0.042,2.528,0.126L551.309,207.381z"/>
		<path fill="#4995D1" d="M185.564,237.425l0.124,1.188c-0.884,0.312-1.898,0.468-3.042,0.468c-1.521,0-2.553-0.359-3.095-1.08
			c-0.542-0.72-0.696-1.92-0.46-3.6c0.224-1.68,0.684-2.859,1.379-3.537s1.786-1.017,3.272-1.017c1.155,0,2.099,0.155,2.83,0.468
			l-0.265,1.08c-0.708-0.048-1.474-0.072-2.299-0.072c-1.038,0-1.783,0.213-2.237,0.639c-0.454,0.427-0.758,1.281-0.911,2.565
			c-0.153,1.284-0.086,2.121,0.203,2.511c0.289,0.391,0.923,0.585,1.901,0.585C183.966,237.623,184.833,237.558,185.564,237.425z"/>
		<path fill="#4995D1" d="M190.746,226.266l-0.442,3.456c-0.118,0.804-0.26,1.523-0.425,2.159c1.509-1.355,2.842-2.033,3.997-2.033
			c0.731,0,1.285,0.213,1.663,0.639s0.507,1.035,0.389,1.827l-0.919,6.552h-1.698l0.832-6.12c0.071-0.552,0.05-0.927-0.062-1.125
			c-0.112-0.198-0.357-0.297-0.734-0.297c-0.484,0-0.988,0.15-1.512,0.45c-0.525,0.3-1.211,0.792-2.061,1.476l-0.76,5.616h-1.716
			l1.751-12.6H190.746z"/>
		<path fill="#4995D1" d="M199.164,238.865h-1.698l1.203-8.784h1.698L199.164,238.865z M199.589,226.337h0.813
			c0.165,0,0.289,0.049,0.372,0.145c0.082,0.096,0.112,0.228,0.088,0.396l-0.124,1.008c-0.047,0.324-0.224,0.486-0.53,0.486h-0.814
			c-0.354,0-0.513-0.186-0.478-0.558l0.159-1.008C199.099,226.493,199.271,226.337,199.589,226.337z"/>
		<path fill="#4995D1" d="M205.106,226.266l-1.397,10.098c-0.059,0.396-0.018,0.675,0.124,0.837
			c0.141,0.162,0.413,0.243,0.813,0.243h0.813l0.071,1.368c-0.318,0.144-0.867,0.216-1.645,0.216c-0.684,0-1.2-0.204-1.547-0.612
			c-0.348-0.407-0.475-0.983-0.38-1.728l1.45-10.422H205.106z"/>
		<path fill="#4995D1" d="M216.037,226.266l-1.733,12.6h-1.344l0.088-1.836c-1.227,1.368-2.529,2.052-3.909,2.052
			c-0.908,0-1.55-0.356-1.928-1.071c-0.377-0.713-0.448-1.929-0.212-3.645c0.142-0.972,0.328-1.767,0.557-2.385
			c0.23-0.618,0.531-1.077,0.902-1.377c0.371-0.3,0.751-0.501,1.141-0.604c0.389-0.102,0.884-0.152,1.486-0.152
			c0.884,0,1.821,0.078,2.812,0.233c0-0.407,0.041-0.966,0.124-1.674l0.301-2.142H216.037z M213.03,235.661l0.583-4.338
			c-0.53-0.023-1.149-0.036-1.857-0.036c-0.59,0-1.041,0.03-1.353,0.09c-0.313,0.061-0.59,0.21-0.831,0.45
			c-0.242,0.24-0.416,0.558-0.522,0.954c-0.106,0.396-0.212,0.966-0.318,1.71c-0.165,1.248-0.188,2.073-0.071,2.475
			c0.118,0.402,0.442,0.604,0.973,0.604c0.531,0,1.049-0.146,1.557-0.441C211.697,236.834,212.311,236.346,213.03,235.661z"/>
		<path fill="#4995D1" d="M223.5,229.848l-0.424,1.638h-0.478c-0.448,0-0.908,0.135-1.379,0.405c-0.472,0.27-1.15,0.729-2.034,1.377
			l-0.76,5.598h-1.716l1.22-8.784h1.309l-0.088,2.017c1.438-1.5,2.735-2.25,3.891-2.25H223.5z"/>
		<path fill="#4995D1" d="M230.769,237.407l0.106,1.17c-0.837,0.336-2.022,0.504-3.555,0.504c-1.474,0-2.494-0.393-3.06-1.179
			s-0.743-2.007-0.531-3.663c0.224-1.692,0.681-2.847,1.371-3.465s1.825-0.927,3.405-0.927c1.344,0,2.258,0.24,2.741,0.72
			s0.66,1.188,0.531,2.124c-0.142,0.852-0.472,1.467-0.991,1.845s-1.315,0.609-2.388,0.693l-2.989,0.27
			c-0.012,0.828,0.159,1.39,0.513,1.684c0.354,0.294,0.908,0.44,1.663,0.44C228.387,237.623,229.448,237.551,230.769,237.407z
			 M225.516,234.203l2.883-0.27c0.542-0.036,0.938-0.153,1.185-0.352s0.407-0.543,0.478-1.035c0.071-0.563-0.021-0.911-0.274-1.044
			c-0.254-0.132-0.77-0.197-1.548-0.197c-0.896,0-1.53,0.188-1.901,0.566C225.967,232.25,225.693,233.027,225.516,234.203z"/>
		<path fill="#4995D1" d="M235.438,230.081l-0.088,1.891c1.557-1.416,2.918-2.124,4.085-2.124c0.731,0,1.285,0.213,1.663,0.639
			s0.507,1.035,0.389,1.827l-0.919,6.552h-1.698l0.832-6.12c0.071-0.552,0.05-0.927-0.062-1.125
			c-0.112-0.198-0.357-0.297-0.734-0.297c-0.484,0-0.988,0.15-1.512,0.45c-0.525,0.3-1.211,0.792-2.061,1.476l-0.76,5.616h-1.716
			l1.22-8.784H235.438z"/>
		<path fill="#4995D1" d="M254.256,238.865h-1.344l0.071-1.62c-1.038,1.224-2.276,1.836-3.714,1.836
			c-1.049,0-1.757-0.348-2.122-1.044c-0.366-0.695-0.431-1.92-0.195-3.672c0.13-0.972,0.313-1.767,0.548-2.385
			s0.548-1.077,0.938-1.377s0.79-0.501,1.203-0.604c0.413-0.102,0.943-0.152,1.592-0.152c1.403,0,2.812,0.155,4.227,0.468
			L254.256,238.865z M252.965,235.697l0.619-4.356c-1.085-0.023-1.692-0.035-1.821-0.035c-0.613,0-1.079,0.029-1.397,0.09
			c-0.318,0.06-0.599,0.213-0.84,0.459c-0.242,0.246-0.419,0.561-0.531,0.944c-0.112,0.385-0.221,0.948-0.327,1.692
			c-0.166,1.309-0.186,2.148-0.062,2.521c0.124,0.372,0.463,0.558,1.017,0.558c0.542,0,1.073-0.153,1.592-0.459
			C251.732,236.805,252.316,236.333,252.965,235.697z"/>
		<path fill="#4995D1" d="M260.074,231.432l-0.69,4.932c-0.059,0.42-0.021,0.705,0.115,0.854c0.135,0.15,0.409,0.226,0.822,0.226
			h1.291l0.071,1.35c-0.519,0.156-1.191,0.234-2.016,0.234c-0.767,0-1.318-0.216-1.654-0.648c-0.336-0.432-0.451-1.05-0.345-1.854
			l0.708-5.094h-1.574l0.159-1.261l1.609-0.09l0.372-2.574h1.68l-0.354,2.574h2.653l-0.177,1.351H260.074z"/>
		<path fill="#4995D1" d="M269.624,230.081l-0.088,1.872c0.555-0.576,1.178-1.067,1.875-1.476c0.695-0.408,1.332-0.612,1.91-0.612
			c1.037,0,1.732,0.336,2.086,1.008c0.354,0.673,0.412,1.908,0.178,3.708c-0.131,0.984-0.313,1.782-0.549,2.395
			c-0.236,0.611-0.543,1.07-0.92,1.377c-0.377,0.306-0.766,0.507-1.166,0.603c-0.402,0.096-0.914,0.145-1.539,0.145
			c-0.814,0-1.723-0.078-2.725-0.234c0,0.54-0.041,1.098-0.123,1.674l-0.301,1.926h-1.716l1.733-12.384H269.624z M269.554,233.285
			l-0.602,4.356c0.555,0.012,1.162,0.018,1.822,0.018c0.613,0,1.078-0.029,1.396-0.09c0.318-0.06,0.598-0.21,0.84-0.45
			s0.416-0.558,0.521-0.954c0.107-0.396,0.213-0.966,0.318-1.71c0.166-1.308,0.186-2.147,0.063-2.52s-0.451-0.559-0.982-0.559
			c-0.389,0-0.889,0.169-1.502,0.504C270.815,232.218,270.19,232.686,269.554,233.285z"/>
		<path fill="#4995D1" d="M283.861,229.848l-0.425,1.638h-0.478c-0.448,0-0.907,0.135-1.379,0.405
			c-0.472,0.27-1.149,0.729-2.034,1.377l-0.761,5.598h-1.715l1.22-8.784h1.309l-0.088,2.017c1.438-1.5,2.735-2.25,3.891-2.25
			H283.861z"/>
		<path fill="#4995D1" d="M291.131,237.407l0.106,1.17c-0.838,0.336-2.022,0.504-3.556,0.504c-1.474,0-2.493-0.393-3.06-1.179
			c-0.565-0.786-0.742-2.007-0.53-3.663c0.224-1.692,0.681-2.847,1.371-3.465c0.689-0.618,1.824-0.927,3.404-0.927
			c1.344,0,2.258,0.24,2.741,0.72s0.66,1.188,0.53,2.124c-0.142,0.852-0.472,1.467-0.99,1.845s-1.314,0.609-2.388,0.693l-2.988,0.27
			c-0.013,0.828,0.158,1.39,0.513,1.684c0.354,0.294,0.907,0.44,1.662,0.44C288.749,237.623,289.811,237.551,291.131,237.407z
			 M285.878,234.203l2.883-0.27c0.542-0.036,0.938-0.153,1.186-0.352c0.247-0.198,0.406-0.543,0.478-1.035
			c0.07-0.563-0.021-0.911-0.274-1.044c-0.254-0.132-0.77-0.197-1.548-0.197c-0.896,0-1.529,0.188-1.901,0.566
			C286.329,232.25,286.055,233.027,285.878,234.203z"/>
		<path fill="#4995D1" d="M297.656,235.589l-2.316-1.08c-0.648-0.312-1.108-0.662-1.38-1.053c-0.271-0.39-0.365-0.891-0.283-1.503
			c0.095-0.804,0.431-1.361,1.009-1.674c0.577-0.312,1.456-0.456,2.635-0.432c1.332,0.023,2.564,0.126,3.696,0.306l-0.212,1.242
			c-1.497-0.048-2.642-0.078-3.431-0.09c-0.778,0-1.301,0.042-1.565,0.126c-0.266,0.084-0.422,0.3-0.469,0.647
			c-0.035,0.3,0.021,0.522,0.168,0.666c0.147,0.145,0.434,0.313,0.857,0.504l2.335,1.08c0.707,0.336,1.19,0.682,1.45,1.035
			c0.259,0.354,0.348,0.854,0.266,1.503c-0.048,0.396-0.148,0.729-0.301,0.999c-0.153,0.271-0.334,0.483-0.54,0.639
			c-0.206,0.156-0.489,0.276-0.849,0.36s-0.714,0.138-1.062,0.162c-0.348,0.023-0.793,0.036-1.335,0.036
			c-0.566,0-1.011-0.009-1.335-0.027c-0.325-0.018-0.685-0.054-1.079-0.107c-0.396-0.055-0.705-0.094-0.929-0.117l0.194-1.296
			c0.66,0.06,1.563,0.09,2.706,0.09c1.085,0,1.815-0.061,2.193-0.181c0.377-0.119,0.596-0.359,0.654-0.72
			c0.012-0.06,0.018-0.12,0.018-0.18c0-0.061-0.003-0.111-0.009-0.153s-0.023-0.084-0.053-0.126s-0.054-0.078-0.071-0.107
			c-0.018-0.03-0.05-0.063-0.097-0.1c-0.048-0.036-0.089-0.065-0.124-0.09c-0.035-0.023-0.089-0.054-0.159-0.09
			s-0.127-0.063-0.168-0.081c-0.042-0.019-0.106-0.048-0.194-0.09C297.789,235.646,297.716,235.613,297.656,235.589z"/>
		<path fill="#4995D1" d="M308.71,237.425l0.124,1.188c-0.884,0.312-1.898,0.468-3.042,0.468c-1.521,0-2.553-0.359-3.095-1.08
			c-0.543-0.72-0.696-1.92-0.46-3.6c0.224-1.68,0.684-2.859,1.38-3.537c0.695-0.678,1.786-1.017,3.271-1.017
			c1.155,0,2.099,0.155,2.83,0.468l-0.266,1.08c-0.707-0.048-1.474-0.072-2.299-0.072c-1.038,0-1.784,0.213-2.237,0.639
			c-0.454,0.427-0.758,1.281-0.911,2.565s-0.086,2.121,0.203,2.511c0.289,0.391,0.923,0.585,1.901,0.585
			C307.112,237.623,307.979,237.558,308.71,237.425z"/>
		<path fill="#4995D1" d="M313.893,226.266l-0.442,3.456c-0.117,0.804-0.259,1.523-0.424,2.159c1.509-1.355,2.841-2.033,3.997-2.033
			c0.73,0,1.285,0.213,1.662,0.639s0.507,1.035,0.39,1.827l-0.92,6.552h-1.698l0.831-6.12c0.071-0.552,0.051-0.927-0.062-1.125
			s-0.356-0.297-0.734-0.297c-0.483,0-0.987,0.15-1.512,0.45s-1.212,0.792-2.061,1.476l-0.761,5.616h-1.715l1.751-12.6H313.893z"/>
		<path fill="#4995D1" d="M325.389,229.848c1.485,0,2.512,0.362,3.077,1.089c0.566,0.726,0.731,1.929,0.495,3.608
			c-0.224,1.656-0.689,2.829-1.396,3.52c-0.708,0.69-1.787,1.035-3.237,1.035c-1.474,0-2.496-0.363-3.068-1.09
			c-0.572-0.726-0.746-1.923-0.521-3.591c0.224-1.655,0.687-2.832,1.389-3.527C322.827,230.195,323.915,229.848,325.389,229.848z
			 M325.389,231.323c-0.908,0-1.571,0.223-1.989,0.666c-0.419,0.444-0.717,1.296-0.894,2.556c-0.165,1.213-0.121,2.031,0.133,2.457
			c0.253,0.427,0.816,0.64,1.688,0.64c0.92,0,1.586-0.231,1.999-0.693c0.412-0.462,0.701-1.305,0.866-2.529
			c0.177-1.212,0.139-2.03-0.114-2.457C326.824,231.536,326.261,231.323,325.389,231.323z"/>
		<path fill="#4995D1" d="M335.222,229.848c1.485,0,2.512,0.362,3.077,1.089c0.566,0.726,0.731,1.929,0.495,3.608
			c-0.224,1.656-0.689,2.829-1.396,3.52c-0.708,0.69-1.787,1.035-3.237,1.035c-1.474,0-2.496-0.363-3.068-1.09
			c-0.572-0.726-0.746-1.923-0.521-3.591c0.224-1.655,0.687-2.832,1.389-3.527C332.66,230.195,333.748,229.848,335.222,229.848z
			 M335.222,231.323c-0.908,0-1.571,0.223-1.989,0.666c-0.419,0.444-0.717,1.296-0.894,2.556c-0.165,1.213-0.121,2.031,0.133,2.457
			c0.253,0.427,0.816,0.64,1.688,0.64c0.92,0,1.586-0.231,1.999-0.693c0.412-0.462,0.701-1.305,0.866-2.529
			c0.177-1.212,0.139-2.03-0.114-2.457C336.657,231.536,336.094,231.323,335.222,231.323z"/>
		<path fill="#4995D1" d="M343.658,226.266l-1.397,10.098c-0.059,0.396-0.018,0.675,0.124,0.837s0.413,0.243,0.813,0.243h0.813
			l0.071,1.368c-0.318,0.144-0.867,0.216-1.645,0.216c-0.685,0-1.2-0.204-1.548-0.612c-0.348-0.407-0.475-0.983-0.38-1.728
			l1.45-10.422H343.658z"/>
		<path fill="#4995D1" d="M346.134,236.633h0.495c0.437,0,0.619,0.223,0.548,0.666l-0.159,1.152
			c-0.094,0.84-0.441,1.794-1.043,2.862l-0.831-0.288c0.294-0.937,0.489-1.668,0.583-2.196c-0.177,0.013-0.313-0.033-0.406-0.135
			c-0.095-0.102-0.13-0.243-0.106-0.423l0.142-1.044c0.047-0.24,0.124-0.399,0.229-0.478
			C345.691,236.672,345.874,236.633,346.134,236.633z"/>
		<path fill="#4995D1" d="M355.525,230.081l-0.089,1.872c0.555-0.576,1.179-1.067,1.875-1.476c0.695-0.408,1.332-0.612,1.91-0.612
			c1.037,0,1.733,0.336,2.087,1.008c0.354,0.673,0.412,1.908,0.177,3.708c-0.13,0.984-0.313,1.782-0.548,2.395
			c-0.236,0.611-0.543,1.07-0.92,1.377c-0.378,0.306-0.767,0.507-1.167,0.603c-0.401,0.096-0.914,0.145-1.539,0.145
			c-0.813,0-1.722-0.078-2.724-0.234c0,0.54-0.042,1.098-0.124,1.674l-0.301,1.926h-1.716l1.733-12.384H355.525z M355.454,233.285
			l-0.601,4.356c0.554,0.012,1.161,0.018,1.821,0.018c0.613,0,1.079-0.029,1.397-0.09c0.318-0.06,0.598-0.21,0.84-0.45
			c0.241-0.24,0.416-0.558,0.521-0.954c0.106-0.396,0.213-0.966,0.318-1.71c0.165-1.308,0.186-2.147,0.063-2.52
			c-0.124-0.372-0.451-0.559-0.982-0.559c-0.389,0-0.89,0.169-1.503,0.504C356.716,232.218,356.091,232.686,355.454,233.285z"/>
		<path fill="#4995D1" d="M369.762,229.848l-0.425,1.638h-0.478c-0.448,0-0.907,0.135-1.379,0.405
			c-0.472,0.27-1.149,0.729-2.034,1.377l-0.761,5.598h-1.715l1.22-8.784h1.309l-0.088,2.017c1.438-1.5,2.735-2.25,3.891-2.25
			H369.762z"/>
		<path fill="#4995D1" d="M371.672,238.865h-1.698l1.203-8.784h1.697L371.672,238.865z M372.096,226.337h0.813
			c0.165,0,0.289,0.049,0.372,0.145c0.082,0.096,0.111,0.228,0.088,0.396l-0.123,1.008c-0.048,0.324-0.225,0.486-0.531,0.486h-0.813
			c-0.354,0-0.513-0.186-0.478-0.558l0.159-1.008C371.606,226.493,371.777,226.337,372.096,226.337z"/>
		<path fill="#4995D1" d="M376.677,230.081l-0.088,1.872c1.367-1.404,2.611-2.105,3.731-2.105c0.66,0,1.167,0.174,1.521,0.521
			c0.354,0.349,0.524,0.834,0.513,1.458c0.672-0.695,1.291-1.2,1.857-1.512c0.565-0.313,1.138-0.468,1.715-0.468
			c0.755,0,1.306,0.219,1.654,0.656c0.348,0.438,0.469,1.042,0.362,1.81l-0.902,6.552h-1.715l0.849-6.12
			c0.07-0.527,0.029-0.896-0.124-1.106s-0.419-0.315-0.796-0.315c-0.413,0-0.828,0.135-1.247,0.405
			c-0.418,0.27-1.022,0.789-1.813,1.557l-0.778,5.58h-1.645l0.831-6.12c0.07-0.504,0.041-0.866-0.089-1.089
			c-0.13-0.222-0.406-0.333-0.831-0.333c-0.424,0-0.843,0.132-1.256,0.396c-0.412,0.265-1.014,0.769-1.804,1.513l-0.778,5.634
			h-1.697l1.22-8.784H376.677z"/>
		<path fill="#4995D1" d="M396.963,238.865h-1.344l0.07-1.62c-1.038,1.224-2.275,1.836-3.714,1.836c-1.05,0-1.757-0.348-2.123-1.044
			c-0.365-0.695-0.43-1.92-0.194-3.672c0.13-0.972,0.313-1.767,0.549-2.385c0.235-0.618,0.548-1.077,0.938-1.377
			c0.389-0.3,0.789-0.501,1.202-0.604c0.413-0.102,0.943-0.152,1.592-0.152c1.403,0,2.813,0.155,4.227,0.468L396.963,238.865z
			 M395.672,235.697l0.619-4.356c-1.085-0.023-1.692-0.035-1.822-0.035c-0.613,0-1.078,0.029-1.396,0.09
			c-0.318,0.06-0.599,0.213-0.841,0.459c-0.241,0.246-0.418,0.561-0.53,0.944c-0.112,0.385-0.221,0.948-0.327,1.692
			c-0.165,1.309-0.186,2.148-0.062,2.521c0.123,0.372,0.462,0.558,1.017,0.558c0.542,0,1.072-0.153,1.592-0.459
			C394.439,236.805,395.023,236.333,395.672,235.697z"/>
		<path fill="#4995D1" d="M406.16,229.848l-0.425,1.638h-0.478c-0.448,0-0.907,0.135-1.379,0.405
			c-0.472,0.27-1.149,0.729-2.034,1.377l-0.761,5.598h-1.715l1.22-8.784h1.309l-0.088,2.017c1.438-1.5,2.735-2.25,3.891-2.25H406.16
			z"/>
		<path fill="#4995D1" d="M413.323,230.081h1.786c-0.637,2.856-1.468,5.274-2.494,7.254c-0.92,1.776-1.83,3.036-2.732,3.78
			s-1.978,1.224-3.228,1.44l-0.318-1.242c0.754-0.181,1.415-0.45,1.98-0.811c0.566-0.359,1.108-0.906,1.627-1.638h-0.796
			c-0.271,0-0.501-0.075-0.689-0.225c-0.188-0.15-0.307-0.357-0.354-0.621l-1.662-7.938h1.804l1.309,7.11
			c0.035,0.204,0.153,0.306,0.354,0.306h0.867c0.047-0.084,0.111-0.207,0.194-0.369c0.082-0.162,0.136-0.267,0.159-0.314
			C412.167,234.617,412.898,232.373,413.323,230.081z"/>
		<path fill="#4995D1" d="M423.916,235.589l-2.316-1.08c-0.648-0.312-1.108-0.662-1.38-1.053c-0.271-0.39-0.365-0.891-0.283-1.503
			c0.095-0.804,0.431-1.361,1.009-1.674c0.577-0.312,1.456-0.456,2.635-0.432c1.332,0.023,2.564,0.126,3.696,0.306l-0.212,1.242
			c-1.497-0.048-2.642-0.078-3.431-0.09c-0.778,0-1.301,0.042-1.565,0.126c-0.266,0.084-0.422,0.3-0.469,0.647
			c-0.035,0.3,0.021,0.522,0.168,0.666c0.147,0.145,0.434,0.313,0.857,0.504l2.335,1.08c0.707,0.336,1.19,0.682,1.45,1.035
			c0.259,0.354,0.348,0.854,0.266,1.503c-0.048,0.396-0.148,0.729-0.301,0.999c-0.153,0.271-0.334,0.483-0.54,0.639
			c-0.206,0.156-0.489,0.276-0.849,0.36s-0.714,0.138-1.062,0.162c-0.348,0.023-0.793,0.036-1.335,0.036
			c-0.566,0-1.011-0.009-1.335-0.027c-0.325-0.018-0.685-0.054-1.079-0.107c-0.396-0.055-0.705-0.094-0.929-0.117l0.194-1.296
			c0.66,0.06,1.563,0.09,2.706,0.09c1.085,0,1.815-0.061,2.193-0.181c0.377-0.119,0.596-0.359,0.654-0.72
			c0.012-0.06,0.018-0.12,0.018-0.18c0-0.061-0.003-0.111-0.009-0.153s-0.023-0.084-0.053-0.126s-0.054-0.078-0.071-0.107
			c-0.018-0.03-0.05-0.063-0.097-0.1c-0.048-0.036-0.089-0.065-0.124-0.09c-0.035-0.023-0.089-0.054-0.159-0.09
			s-0.127-0.063-0.168-0.081c-0.042-0.019-0.106-0.048-0.194-0.09C424.049,235.646,423.976,235.613,423.916,235.589z"/>
		<path fill="#4995D1" d="M434.97,237.425l0.124,1.188c-0.884,0.312-1.898,0.468-3.042,0.468c-1.521,0-2.553-0.359-3.095-1.08
			c-0.543-0.72-0.696-1.92-0.46-3.6c0.224-1.68,0.684-2.859,1.38-3.537c0.695-0.678,1.786-1.017,3.271-1.017
			c1.155,0,2.099,0.155,2.83,0.468l-0.266,1.08c-0.707-0.048-1.474-0.072-2.299-0.072c-1.038,0-1.784,0.213-2.237,0.639
			c-0.454,0.427-0.758,1.281-0.911,2.565s-0.086,2.121,0.203,2.511c0.289,0.391,0.923,0.585,1.901,0.585
			C433.372,237.623,434.239,237.558,434.97,237.425z"/>
		<path fill="#4995D1" d="M440.152,226.266l-0.442,3.456c-0.117,0.804-0.259,1.523-0.424,2.159c1.509-1.355,2.841-2.033,3.997-2.033
			c0.73,0,1.285,0.213,1.662,0.639s0.507,1.035,0.39,1.827l-0.92,6.552h-1.698l0.831-6.12c0.071-0.552,0.051-0.927-0.062-1.125
			s-0.356-0.297-0.734-0.297c-0.483,0-0.987,0.15-1.512,0.45s-1.212,0.792-2.061,1.476l-0.761,5.616h-1.715l1.751-12.6H440.152z"/>
		<path fill="#4995D1" d="M451.647,229.848c1.485,0,2.512,0.362,3.077,1.089c0.566,0.726,0.731,1.929,0.495,3.608
			c-0.224,1.656-0.689,2.829-1.396,3.52c-0.708,0.69-1.787,1.035-3.237,1.035c-1.474,0-2.496-0.363-3.068-1.09
			c-0.572-0.726-0.746-1.923-0.521-3.591c0.224-1.655,0.687-2.832,1.389-3.527C449.086,230.195,450.174,229.848,451.647,229.848z
			 M451.647,231.323c-0.908,0-1.571,0.223-1.989,0.666c-0.419,0.444-0.717,1.296-0.894,2.556c-0.165,1.213-0.121,2.031,0.133,2.457
			c0.253,0.427,0.816,0.64,1.688,0.64c0.92,0,1.586-0.231,1.999-0.693c0.412-0.462,0.701-1.305,0.866-2.529
			c0.177-1.212,0.139-2.03-0.114-2.457C453.083,231.536,452.52,231.323,451.647,231.323z"/>
		<path fill="#4995D1" d="M461.481,229.848c1.485,0,2.512,0.362,3.077,1.089c0.566,0.726,0.731,1.929,0.495,3.608
			c-0.224,1.656-0.689,2.829-1.396,3.52c-0.708,0.69-1.787,1.035-3.237,1.035c-1.474,0-2.496-0.363-3.068-1.09
			c-0.572-0.726-0.746-1.923-0.521-3.591c0.224-1.655,0.687-2.832,1.389-3.527C458.92,230.195,460.008,229.848,461.481,229.848z
			 M461.481,231.323c-0.908,0-1.571,0.223-1.989,0.666c-0.419,0.444-0.717,1.296-0.894,2.556c-0.165,1.213-0.121,2.031,0.133,2.457
			c0.253,0.427,0.816,0.64,1.688,0.64c0.92,0,1.586-0.231,1.999-0.693c0.412-0.462,0.701-1.305,0.866-2.529
			c0.177-1.212,0.139-2.03-0.114-2.457C462.917,231.536,462.354,231.323,461.481,231.323z"/>
		<path fill="#4995D1" d="M469.917,226.266l-1.397,10.098c-0.059,0.396-0.018,0.675,0.124,0.837s0.413,0.243,0.813,0.243h0.813
			l0.071,1.368c-0.318,0.144-0.867,0.216-1.645,0.216c-0.685,0-1.2-0.204-1.548-0.612c-0.348-0.407-0.475-0.983-0.38-1.728
			l1.45-10.422H469.917z"/>
		<path fill="#4995D1" d="M486.879,233.123h-1.786c-0.177,1.296-0.531,2.376-1.062,3.24c-1.097,1.788-2.942,2.688-5.536,2.7
			c-1.367,0.012-2.322-0.249-2.865-0.783c-0.542-0.534-0.742-1.413-0.601-2.637c0.235-2.017,1.214-3.078,2.936-3.187l0.018-0.09
			c-1.415-0.108-1.975-1.092-1.68-2.952c0.212-1.271,0.678-2.117,1.396-2.538c0.72-0.42,1.811-0.63,3.272-0.63
			c1.002,0,2.016,0.133,3.042,0.396l-0.301,1.332c-0.696-0.156-1.586-0.234-2.671-0.234c-1.049,0-1.78,0.129-2.192,0.387
			c-0.413,0.259-0.685,0.813-0.814,1.665c-0.117,0.769-0.038,1.287,0.239,1.558c0.277,0.27,0.846,0.404,1.707,0.404h3.696
			c0.023-0.468,0.035-1.218,0.035-2.25h1.557c0.012,0.721,0,1.471-0.035,2.25h1.839L486.879,233.123z M483.536,233.123h-3.731
			c-0.944,0-1.628,0.165-2.052,0.495c-0.425,0.33-0.708,0.945-0.85,1.845c-0.117,0.78-0.05,1.314,0.204,1.603
			c0.253,0.288,0.78,0.432,1.583,0.432c1.769,0,3.071-0.6,3.908-1.8C483.059,235.049,483.371,234.191,483.536,233.123z"/>
		<path fill="#4995D1" d="M495.049,226.266l-0.478,3.636c-0.106,0.792-0.26,1.464-0.46,2.016c0.566-0.576,1.188-1.062,1.866-1.458
			c0.678-0.396,1.306-0.594,1.884-0.594c0.684,0,1.208,0.129,1.573,0.387c0.365,0.259,0.625,0.738,0.778,1.44s0.13,1.665-0.07,2.889
			c-0.13,0.984-0.313,1.785-0.549,2.403c-0.235,0.618-0.542,1.077-0.919,1.377c-0.378,0.3-0.761,0.498-1.15,0.594
			c-0.389,0.096-0.89,0.145-1.503,0.145c-1.438,0-2.889-0.217-4.351-0.648l1.68-12.186H495.049z M494.076,233.285l-0.584,4.32
			c0.849,0.036,1.479,0.054,1.893,0.054c1.12,0,1.857-0.183,2.211-0.549s0.625-1.251,0.813-2.655
			c0.165-1.308,0.183-2.147,0.053-2.52s-0.466-0.559-1.008-0.559C496.617,231.377,495.491,232.014,494.076,233.285z"/>
		<path fill="#4995D1" d="M508.897,237.407l0.106,1.17c-0.838,0.336-2.022,0.504-3.556,0.504c-1.474,0-2.493-0.393-3.06-1.179
			c-0.565-0.786-0.742-2.007-0.53-3.663c0.224-1.692,0.681-2.847,1.371-3.465c0.689-0.618,1.824-0.927,3.404-0.927
			c1.344,0,2.258,0.24,2.741,0.72s0.66,1.188,0.53,2.124c-0.142,0.852-0.472,1.467-0.99,1.845s-1.314,0.609-2.388,0.693l-2.988,0.27
			c-0.013,0.828,0.158,1.39,0.513,1.684c0.354,0.294,0.907,0.44,1.662,0.44C506.516,237.623,507.577,237.551,508.897,237.407z
			 M503.645,234.203l2.883-0.27c0.542-0.036,0.938-0.153,1.186-0.352c0.247-0.198,0.406-0.543,0.478-1.035
			c0.07-0.563-0.021-0.911-0.274-1.044c-0.254-0.132-0.77-0.197-1.548-0.197c-0.896,0-1.529,0.188-1.901,0.566
			C504.096,232.25,503.821,233.027,503.645,234.203z"/>
		<path fill="#4995D1" d="M518.023,230.081h1.786c-0.637,2.856-1.468,5.274-2.494,7.254c-0.92,1.776-1.83,3.036-2.732,3.78
			s-1.978,1.224-3.228,1.44l-0.318-1.242c0.754-0.181,1.415-0.45,1.98-0.811c0.566-0.359,1.108-0.906,1.627-1.638h-0.796
			c-0.271,0-0.501-0.075-0.689-0.225c-0.188-0.15-0.307-0.357-0.354-0.621l-1.662-7.938h1.804l1.309,7.11
			c0.035,0.204,0.153,0.306,0.354,0.306h0.867c0.047-0.084,0.111-0.207,0.194-0.369c0.082-0.162,0.136-0.267,0.159-0.314
			C516.867,234.617,517.599,232.373,518.023,230.081z"/>
		<path fill="#4995D1" d="M525.31,229.848c1.485,0,2.512,0.362,3.077,1.089c0.566,0.726,0.731,1.929,0.495,3.608
			c-0.224,1.656-0.689,2.829-1.396,3.52c-0.708,0.69-1.787,1.035-3.237,1.035c-1.474,0-2.496-0.363-3.068-1.09
			c-0.572-0.726-0.746-1.923-0.521-3.591c0.224-1.655,0.687-2.832,1.389-3.527C522.748,230.195,523.836,229.848,525.31,229.848z
			 M525.31,231.323c-0.908,0-1.571,0.223-1.989,0.666c-0.419,0.444-0.717,1.296-0.894,2.556c-0.165,1.213-0.121,2.031,0.133,2.457
			c0.253,0.427,0.816,0.64,1.688,0.64c0.92,0,1.586-0.231,1.999-0.693c0.412-0.462,0.701-1.305,0.866-2.529
			c0.177-1.212,0.139-2.03-0.114-2.457C526.745,231.536,526.182,231.323,525.31,231.323z"/>
		<path fill="#4995D1" d="M532.862,230.081l-0.089,1.891c1.557-1.416,2.918-2.124,4.086-2.124c0.73,0,1.285,0.213,1.662,0.639
			s0.507,1.035,0.39,1.827l-0.92,6.552h-1.698l0.831-6.12c0.071-0.552,0.051-0.927-0.062-1.125s-0.356-0.297-0.734-0.297
			c-0.483,0-0.987,0.15-1.512,0.45s-1.212,0.792-2.061,1.476l-0.761,5.616h-1.715l1.22-8.784H532.862z"/>
		<path fill="#4995D1" d="M549.664,226.266l-1.733,12.6h-1.344l0.088-1.836c-1.227,1.368-2.529,2.052-3.908,2.052
			c-0.908,0-1.551-0.356-1.928-1.071c-0.378-0.713-0.448-1.929-0.213-3.645c0.142-0.972,0.327-1.767,0.558-2.385
			c0.229-0.618,0.53-1.077,0.901-1.377c0.372-0.3,0.752-0.501,1.141-0.604c0.39-0.102,0.885-0.152,1.486-0.152
			c0.884,0,1.821,0.078,2.812,0.233c0-0.407,0.042-0.966,0.124-1.674l0.301-2.142H549.664z M546.657,235.661l0.584-4.338
			c-0.531-0.023-1.15-0.036-1.857-0.036c-0.59,0-1.041,0.03-1.353,0.09c-0.313,0.061-0.59,0.21-0.832,0.45
			c-0.241,0.24-0.415,0.558-0.521,0.954c-0.106,0.396-0.212,0.966-0.318,1.71c-0.165,1.248-0.188,2.073-0.07,2.475
			c0.117,0.402,0.441,0.604,0.973,0.604c0.53,0,1.049-0.146,1.556-0.441C545.324,236.834,545.938,236.346,546.657,235.661z"/>
	</g>
	<path fill="#4995D1" d="M315.846,170.598l0.107-5.04c2.928-0.527,5.76-0.792,8.496-0.792c3.096,0,5.322,0.438,6.678,1.314
		s1.902,2.526,1.639,4.95c-0.145,1.344-0.547,2.574-1.207,3.689c-0.66,1.116-1.794,2.383-3.401,3.799l-6.912,6.155
		c1.056-0.312,2.231-0.468,3.528-0.468h6.912l-0.793,5.832h-18.432l0.504-3.636c0.191-1.225,0.564-2.124,1.116-2.7l6.444-5.724
		c2.111-1.944,3.516-3.307,4.212-4.087c0.696-0.779,1.116-1.518,1.26-2.214c0.096-0.504-0.019-0.84-0.342-1.008
		c-0.324-0.167-0.931-0.252-1.818-0.252C320.789,170.418,318.125,170.479,315.846,170.598z"/>
	<path fill="#4995D1" d="M346.126,164.694c3.768,0,6.318,0.99,7.65,2.97c1.332,1.98,1.661,5.382,0.99,10.206
		c-0.697,4.776-1.873,8.082-3.529,9.918c-1.655,1.836-4.319,2.754-7.991,2.754c-3.648,0-6.169-0.995-7.56-2.988
		c-1.393-1.991-1.741-5.388-1.045-10.188c0.672-4.752,1.842-8.052,3.51-9.9C339.819,165.618,342.478,164.694,346.126,164.694z
		 M345.838,169.842c-1.008,0-1.782,0.198-2.321,0.595c-0.541,0.396-0.984,1.134-1.332,2.214c-0.349,1.08-0.666,2.735-0.955,4.968
		c-0.432,3.288-0.51,5.406-0.233,6.354c0.275,0.949,1.122,1.423,2.538,1.423c1.488,0,2.525-0.486,3.113-1.458
		c0.588-0.973,1.086-3.078,1.494-6.318c0.336-2.136,0.462-3.78,0.379-4.932c-0.085-1.152-0.313-1.914-0.685-2.286
		S346.798,169.842,345.838,169.842z"/>
	<path fill="#4995D1" d="M366.41,190.038h-6.732l2.412-16.56c0.191-1.297,0.396-2.28,0.612-2.952l-5.868,1.403l-0.504-4.176
		l7.02-2.556h6.553L366.41,190.038z"/>
	<path fill="#4995D1" d="M389.45,170.166h-9.685l-0.791,3.672l2.951,0.324c2.784,0.36,4.698,1.26,5.742,2.7
		c1.044,1.439,1.434,3.156,1.17,5.147c-0.744,5.328-4.152,8.148-10.224,8.46c-2.064,0.12-4.824-0.12-8.28-0.72l0.9-5.076
		c2.424,0.288,4.451,0.385,6.084,0.288c1.535-0.072,2.688-0.372,3.455-0.899c0.769-0.528,1.248-1.368,1.44-2.521
		c0.144-0.864-0.03-1.458-0.522-1.782c-0.492-0.323-1.481-0.569-2.969-0.737l-3.781-0.504c-0.695-0.096-1.229-0.391-1.602-0.883
		c-0.372-0.491-0.498-1.073-0.378-1.746l2.124-10.691h15.301L389.45,170.166z"/>
	<path fill="#4995D1" d="M408.072,181.146l-4.607-2.089c-1.896-0.863-3.162-1.896-3.799-3.096c-0.636-1.199-0.846-2.664-0.629-4.392
		c0.336-2.64,1.283-4.44,2.844-5.4c1.56-0.959,4.008-1.439,7.344-1.439c3.287,0,6.132,0.384,8.531,1.151l-0.611,4.393
		c-4.32-0.072-7.068-0.108-8.244-0.108c-1.129,0-1.908,0.097-2.34,0.288c-0.432,0.192-0.708,0.648-0.828,1.368
		c-0.096,0.528-0.03,0.931,0.198,1.206c0.228,0.276,0.749,0.582,1.565,0.918l4.284,1.872c1.944,0.84,3.222,1.83,3.835,2.97
		c0.611,1.141,0.809,2.67,0.594,4.59c-0.337,2.784-1.225,4.668-2.664,5.652c-1.44,0.984-3.912,1.476-7.416,1.476
		c-3.096,0-6.156-0.372-9.18-1.116l0.647-4.752c4.848,0.121,7.583,0.181,8.208,0.181c1.344,0,2.273-0.114,2.79-0.342
		c0.516-0.229,0.833-0.69,0.954-1.387c0.096-0.527,0.041-0.911-0.162-1.151C409.182,181.698,408.744,181.435,408.072,181.146z"/>
	<path fill="#4995D1" d="M435.679,184.962l0.432,4.068c-2.137,0.96-4.872,1.439-8.208,1.439c-3.696,0-6.216-0.785-7.56-2.357
		c-1.345-1.572-1.836-3.99-1.477-7.254c0.408-3.576,1.434-6.006,3.078-7.29s4.17-1.927,7.578-1.927c3.385,0,5.699,0.535,6.948,1.603
		c1.247,1.068,1.716,2.682,1.403,4.842c-0.24,1.608-0.93,2.742-2.069,3.402s-2.946,1.086-5.418,1.277l-4.86,0.36
		c0.023,0.912,0.264,1.519,0.721,1.818c0.455,0.3,1.224,0.45,2.303,0.45C430.831,185.395,433.206,185.25,435.679,184.962z
		 M425.923,179.67l3.023-0.288c0.888-0.071,1.53-0.233,1.926-0.485c0.396-0.252,0.631-0.738,0.703-1.458
		c0.047-0.576-0.072-0.954-0.361-1.135c-0.287-0.18-0.888-0.257-1.799-0.233c-1.104,0.024-1.891,0.27-2.358,0.737
		C426.589,177.276,426.21,178.23,425.923,179.67z"/>
	<path fill="#4995D1" d="M455.293,171.642l-1.404,6.013h-1.512c-1.152,0-2.916,0.42-5.293,1.26l-1.512,11.124h-6.588l2.52-17.892
		h5.113l0.107,2.844c2.543-2.232,4.992-3.349,7.344-3.349H455.293z"/>
	<path fill="#4995D1" d="M461.442,190.038h-6.516l2.484-17.892h6.516L461.442,190.038z M460.399,164.082h2.592
		c1.391,0,2.016,0.684,1.871,2.052l-0.252,1.872c-0.168,1.2-0.876,1.8-2.123,1.8h-2.664c-1.368,0-1.969-0.684-1.801-2.052
		l0.252-1.872C458.37,164.683,459.079,164.082,460.399,164.082z"/>
	<path fill="#4995D1" d="M482.678,184.962l0.432,4.068c-2.137,0.96-4.873,1.439-8.209,1.439c-3.695,0-6.215-0.785-7.559-2.357
		c-1.346-1.572-1.837-3.99-1.477-7.254c0.408-3.576,1.434-6.006,3.078-7.29c1.644-1.284,4.17-1.927,7.578-1.927
		c3.384,0,5.699,0.535,6.947,1.603c1.248,1.068,1.716,2.682,1.404,4.842c-0.24,1.608-0.93,2.742-2.07,3.402
		c-1.14,0.66-2.945,1.086-5.418,1.277l-4.859,0.36c0.023,0.912,0.264,1.519,0.72,1.818s1.224,0.45,2.304,0.45
		C477.829,185.395,480.205,185.25,482.678,184.962z M472.921,179.67l3.024-0.288c0.887-0.071,1.529-0.233,1.926-0.485
		s0.63-0.738,0.702-1.458c0.048-0.576-0.072-0.954-0.36-1.135c-0.287-0.18-0.889-0.257-1.8-0.233
		c-1.104,0.024-1.89,0.27-2.358,0.737C473.587,177.276,473.209,178.23,472.921,179.67z"/>
	<path fill="#4995D1" d="M494.947,183.702l-3.996-1.368c-2.952-1.008-4.225-2.976-3.815-5.904c0.215-1.655,0.947-2.867,2.195-3.636
		c1.248-0.768,3.3-1.152,6.156-1.152c3.455,0.049,6.348,0.313,8.676,0.793l-0.576,3.924c-3.12-0.048-5.424-0.072-6.912-0.072
		c-1.367,0-2.256,0.036-2.664,0.108c-0.408,0.071-0.636,0.252-0.684,0.54c-0.024,0.287,0.09,0.516,0.342,0.684
		s0.75,0.372,1.494,0.612l4.141,1.332c2.951,0.96,4.26,2.808,3.924,5.544c-0.265,2.136-1.093,3.558-2.484,4.266
		c-1.393,0.708-3.541,1.063-6.444,1.063c-2.832,0-5.688-0.24-8.567-0.721l0.539-3.924c0.289,0,1.152,0.006,2.593,0.018
		c1.44,0.013,2.532,0.019,3.276,0.019c1.943,0,3.221-0.06,3.834-0.18c0.611-0.12,0.941-0.348,0.989-0.685
		c0.024-0.264-0.084-0.468-0.323-0.612C496.399,184.206,495.835,183.99,494.947,183.702z"/>
</g>
<g id="Layer_2">
</g>
</svg>
