<?xml version="1.0" encoding="utf-8"?>
<!-- Generator: Adobe Illustrator 25.4.1, SVG Export Plug-In . SVG Version: 6.00 Build 0)  -->
<svg version="1.1" id="Layer_1" xmlns="http://www.w3.org/2000/svg" xmlns:xlink="http://www.w3.org/1999/xlink" x="0px" y="0px"
	 viewBox="0 0 1013.9 192" style="enable-background:new 0 0 1013.9 192;" xml:space="preserve">
<style type="text/css">
	.st0{fill-rule:evenodd;clip-rule:evenodd;fill:#F7941D;}
	.st1{fill:#FFFFFF;}
	.st2{fill:#ABABAB;}
</style>
<path class="st0" d="M82.1,69.4c0.7-0.3,1.4-0.6,2.2-0.9c6.5-2,13.7-2.9,21.6-2.9c1.8,0,3.8,0.1,5.7,0.2c-5.4,5.4-11.8,9.9-19,13.5
	c-3.8,1.7-7.3,3.1-10.6,4c-3,0.8-5.8,1.2-8.3,1.2c-3.2,0-5-0.7-5.2-2.1c-0.2-2.2,0.4-4.2,1.9-6.1C72.9,73.6,76.8,71.3,82.1,69.4z
	 M129.4,71.1c0.4-0.5,0.8-1.1,1.2-1.6c12.1,4,18.7,10.3,19.7,18.9c0.8,5.7-1.9,12.1-8.1,19.2c-3.5,4.1-7.8,8.1-12.8,11.9
	c-8.9,6.8-20.2,13.2-33.9,19.2c-20.4,9-37.4,13.5-50.9,13.5c-2.8,0-5-0.2-6.6-0.5c-4.6-1.2-9.3-6.6-14-16.3c-1.5-3.1-3-6.7-4.5-10.7
	C13,107.5,9.3,89.1,8.5,69.4C8,56,9.1,44.9,11.8,36c2.8-8.8,6.8-14.1,12.1-15.9c3.9-1.3,9-2.3,15.2-3.1c6.3-0.8,12.9-1.2,19.7-1.2
	c8.4,0,16.2,0.5,23.2,1.6c7,1,13.4,2.5,19.2,4.5c13.2,4.5,20.2,10.8,21.1,18.9c0.5,3,0.2,6.2-0.9,9.5c-5-0.9-10.2-1.4-15.6-1.4
	c-8.7,0-16.6,1-23.9,3.1c-1.7,0.3-3.4,0.8-5,1.4c-8.5,2.9-14.9,6.9-19.2,12.1c-5.1,5.9-7,12.5-5.7,19.9c0.8,5,3.1,8.8,6.9,11.6
	c3.8,2.8,8.7,4.2,14.7,4.2c2.8,0,5.5-0.2,8.3-0.7c6.7-1.3,13.8-3.9,21.5-8C114.3,86.7,122.9,79.6,129.4,71.1z"/>
<g>
	<path class="st1" d="M159.4,150.7V19.8h54.5c10,0,18.4,1.4,25.1,4.3c6.7,2.9,11.7,6.8,15.1,11.9c3.4,5,5.1,10.9,5.1,17.4
		c0,5.1-1.1,9.6-3.2,13.5c-2.1,3.9-5,7-8.7,9.5c-3.7,2.5-7.9,4.2-12.7,5.2v1.3c5.2,0.2,10,1.6,14.6,4.2c4.5,2.6,8.2,6.2,11.1,10.9
		c2.8,4.7,4.3,10.2,4.3,16.7c0,6.9-1.8,13.1-5.4,18.6c-3.6,5.4-8.8,9.7-15.8,12.9c-7,3.2-15.5,4.7-25.7,4.7H159.4z M188.2,74.6h21.3
		c3.9,0,7.5-0.7,10.5-2c3.1-1.3,5.5-3.2,7.3-5.7c1.8-2.5,2.7-5.4,2.7-8.9c0-4.7-1.7-8.5-5.2-11.4c-3.5-2.9-8.4-4.3-14.8-4.3h-21.9
		V74.6z M188.2,128.1h23.5c8,0,13.9-1.5,17.6-4.4c3.7-3,5.5-6.9,5.5-11.9c0-3.6-0.9-6.8-2.7-9.6c-1.8-2.8-4.4-4.9-7.7-6.5
		c-3.3-1.6-7.3-2.4-11.9-2.4h-24.1V128.1z"/>
	<path class="st1" d="M272.3,150.7V52.5h27.5v17.1h1.1c1.9-6.1,5-10.7,9.4-13.8c4.4-3.1,9.4-4.7,15.2-4.7c1.4,0,2.9,0.1,4.6,0.3
		c1.6,0.2,3.1,0.4,4.3,0.7v24.2c-1.3-0.4-3.2-0.7-5.5-1c-2.3-0.3-4.5-0.4-6.4-0.4c-4.2,0-7.9,0.9-11.1,2.6c-3.3,1.7-5.8,4.1-7.7,7.2
		c-1.9,3.1-2.8,6.6-2.8,10.6v55.5H272.3z"/>
	<path class="st1" d="M365.6,152.6c-6.5,0-12.3-1.1-17.4-3.3c-5.1-2.2-9.1-5.5-12.1-9.8c-2.9-4.3-4.4-9.7-4.4-16.2
		c0-5.5,1-10,3.1-13.7c2.1-3.7,4.9-6.7,8.5-8.9c3.6-2.3,7.7-4,12.3-5.1c4.6-1.2,9.4-2,14.5-2.4c5.9-0.6,10.7-1.2,14.4-1.7
		c3.6-0.5,6.3-1.3,7.9-2.4c1.6-1.1,2.5-2.6,2.5-4.7v-0.4c0-4-1.3-7.2-4-9.4c-2.6-2.2-6.4-3.3-11.2-3.3c-5.1,0-9.2,1.1-12.2,3.2
		c-3,2.2-5,4.8-6,8.1l-26.2-2c1.3-6,3.9-11.1,7.8-15.5c3.9-4.4,8.9-7.7,15.1-10.1c6.2-2.4,13.4-3.5,21.5-3.5
		c5.7,0,11.1,0.6,16.3,1.9c5.2,1.3,9.8,3.3,13.9,5.9c4.1,2.7,7.3,6.1,9.6,10.3c2.3,4.2,3.5,9.2,3.5,15.1v66.2h-26.9v-13.6h-0.8
		c-1.6,3.1-3.8,5.8-6.6,8.1c-2.7,2.3-6,4.1-9.9,5.4C375.1,151.9,370.6,152.6,365.6,152.6z M373.7,133.8c4.2,0,7.8-0.8,11-2.4
		c3.2-1.6,5.7-3.8,7.5-6.5c1.8-2.7,2.7-5.8,2.7-9.3v-10.4c-0.9,0.6-2.1,1.1-3.6,1.5c-1.5,0.4-3.2,0.9-5.2,1.2
		c-1.9,0.4-3.8,0.7-5.7,1c-1.9,0.3-3.6,0.5-5.2,0.7c-3.3,0.5-6.2,1.2-8.7,2.2c-2.5,1-4.4,2.4-5.8,4.1c-1.4,1.7-2.1,3.9-2.1,6.4
		c0,3.7,1.4,6.5,4.2,8.5C365.8,132.8,369.3,133.8,373.7,133.8z"/>
	<path class="st1" d="M462.3,94v56.8H434V52.5h27v17.3h1.2c2.3-5.7,6-10.2,11.4-13.6c5.3-3.3,11.8-5,19.3-5c7.1,0,13.3,1.5,18.5,4.5
		c5.3,3,9.4,7.2,12.3,12.8c2.9,5.5,4.4,12.1,4.4,19.7v62.5h-28.3V93.1c0-6-1.6-10.7-4.8-14.1c-3.2-3.4-7.7-5.1-13.4-5.1
		c-3.8,0-7.2,0.8-10.1,2.4c-2.9,1.6-5.2,3.9-6.8,6.9C463.2,86.1,462.3,89.7,462.3,94z"/>
	<path class="st1" d="M576,152.3c-7.8,0-14.8-1.9-21-5.8c-6.3-3.9-11.2-9.5-14.9-17.1c-3.7-7.5-5.5-16.8-5.5-27.7
		c0-11.2,1.9-20.6,5.7-28.1s8.8-13.1,15.1-16.8c6.3-3.7,13.2-5.6,20.6-5.6c5.7,0,10.5,0.9,14.3,2.8c3.8,1.9,6.9,4.2,9.3,6.9
		s4.2,5.4,5.4,8.1h0.9V19.8h28.3v130.9h-27.9V135H605c-1.3,2.7-3.2,5.4-5.6,8.1c-2.4,2.7-5.5,4.9-9.4,6.6
		C586.1,151.5,581.5,152.3,576,152.3z M584.9,130.7c4.6,0,8.4-1.2,11.6-3.6c3.2-2.4,5.6-5.8,7.3-10.1c1.7-4.3,2.6-9.4,2.6-15.3
		c0-5.8-0.8-10.9-2.5-15.2c-1.7-4.3-4.1-7.6-7.3-10c-3.2-2.3-7.1-3.5-11.6-3.5c-4.7,0-8.6,1.2-11.8,3.6c-3.2,2.4-5.6,5.8-7.2,10.1
		c-1.6,4.3-2.5,9.3-2.5,15c0,5.7,0.8,10.7,2.5,15.1c1.7,4.4,4.1,7.8,7.2,10.2C576.4,129.4,580.3,130.7,584.9,130.7z"/>
	<path class="st2" d="M688.2,152.8c-9.2,0-17.2-2.2-24.1-6.6c-6.8-4.4-12.1-10.4-15.8-18c-3.7-7.6-5.6-16.3-5.6-26.1
		c0-9.8,1.9-18.5,5.6-26.2c3.7-7.7,8.9-13.7,15.5-18.2c6.6-4.4,14-6.6,22.5-6.6c5.7,0,11.1,1.1,16.3,3.3c5.1,2.2,9.6,5.4,13.6,9.5
		c3.9,4.1,7,9.1,9.2,15c2.2,5.8,3.4,12.4,3.4,19.7v4.9h-80.8v-7.1h72.7c0-7.1-1.5-13.5-4.5-19.2c-3-5.7-7.1-10.2-12.3-13.6
		c-5.2-3.4-11-5-17.5-5c-6.8,0-12.8,1.8-18.1,5.5c-5.3,3.6-9.5,8.6-12.6,14.7c-3.1,6.2-4.7,13.1-4.8,20.7v3.2c0,8.2,1.5,15.5,4.5,22
		c3,6.5,7.3,11.6,12.9,15.4s12.3,5.7,20.1,5.7c5.6,0,10.4-0.9,14.3-2.7c4-1.8,7.2-4,9.7-6.6c2.5-2.6,4.4-5.1,5.7-7.5l7.4,2.9
		c-1.6,3.3-4,6.6-7.2,9.8c-3.3,3.3-7.4,6-12.4,8.1C700.7,151.7,694.9,152.8,688.2,152.8z"/>
	<path class="st2" d="M801.2,73.7l-7.5,1.9c-1.2-3.6-2.9-6.7-5.1-9.3c-2.2-2.6-5-4.6-8.3-6c-3.3-1.4-7.3-2.1-12-2.1
		c-7.5,0-13.6,1.8-18.4,5.4c-4.8,3.6-7.1,8.2-7.1,14c0,4.7,1.6,8.6,4.9,11.6c3.2,3,8.2,5.4,14.8,6.9l15.7,3.8
		c8.1,1.9,14.1,5,18.2,9.3c4.1,4.3,6.1,9.6,6.1,15.9c0,5.4-1.5,10.2-4.6,14.4c-3.1,4.2-7.3,7.4-12.7,9.8c-5.4,2.3-11.6,3.5-18.8,3.5
		c-9.5,0-17.4-2.1-23.5-6.4c-6.1-4.3-10-10.4-11.8-18.4l7.8-1.9c1.5,6.4,4.5,11.3,9.1,14.6c4.6,3.3,10.7,5,18.2,5
		c8.3,0,15.1-1.9,20.2-5.7c5.1-3.8,7.7-8.7,7.7-14.6c0-4.5-1.5-8.3-4.5-11.4c-3-3.1-7.6-5.4-13.7-6.8l-16.3-3.8
		c-8.3-2-14.6-5.1-18.7-9.4c-4.2-4.3-6.2-9.7-6.2-16c0-5.3,1.4-9.9,4.3-13.9c2.9-4,6.8-7.1,11.9-9.4c5.1-2.3,10.8-3.4,17.4-3.4
		c8.6,0,15.7,2,21.1,5.9C794.8,60.9,798.7,66.5,801.2,73.7z"/>
	<path class="st2" d="M815.6,35.2c-1.8,0-3.4-0.6-4.7-1.8c-1.3-1.2-1.9-2.6-1.9-4.3c0-1.7,0.6-3.2,1.9-4.3c1.3-1.2,2.8-1.8,4.7-1.8
		c1.8,0,3.3,0.6,4.6,1.8c1.3,1.2,1.9,2.6,1.9,4.3c0,1.7-0.6,3.2-1.9,4.3C818.9,34.6,817.3,35.2,815.6,35.2z M811.5,150.7V52.5h8
		v98.2H811.5z"/>
	<path class="st2" d="M871.2,189.6c-6.3,0-12-0.8-17.1-2.4c-5.1-1.6-9.3-3.9-12.9-6.8s-6.2-6.4-8.1-10.5l6.8-3.8
		c1.5,3.2,3.7,6,6.4,8.4c2.8,2.5,6.3,4.4,10.4,5.8c4.1,1.4,8.9,2.1,14.4,2.1c9.8,0,17.6-2.4,23.4-7.3c5.7-4.9,8.6-12.3,8.6-22.4
		v-24.4h-0.8c-1.6,4.3-3.8,8-6.9,11.3c-3,3.3-6.7,5.9-11.1,7.8c-4.4,1.9-9.4,2.8-15,2.8c-8.1,0-15.2-2-21.3-6
		c-6.1-4-10.9-9.6-14.3-16.9c-3.4-7.3-5.1-15.8-5.1-25.7s1.7-18.6,5-26.2c3.3-7.6,8.1-13.6,14.2-17.9c6.1-4.3,13.3-6.5,21.5-6.5
		c5.9,0,11,1.1,15.3,3.2c4.3,2.2,7.9,5,10.9,8.5c2.9,3.5,5.2,7.4,6.8,11.6h0.9V52.5h7.8V153c0,8.2-1.7,15-5,20.4
		c-3.3,5.4-8,9.5-14,12.1C886.2,188.3,879.2,189.6,871.2,189.6z M870.2,143c6.8,0,12.7-1.7,17.6-5c4.9-3.3,8.8-8.1,11.4-14.3
		c2.7-6.2,4-13.6,4-22.1c0-8.3-1.3-15.7-3.9-22.2C896.7,72.9,893,67.7,888,64c-5-3.7-10.9-5.6-17.8-5.6c-7,0-13.1,1.9-18,5.7
		c-5,3.8-8.8,9-11.4,15.5s-4,13.8-4,22c0,8.2,1.3,15.4,4,21.6c2.7,6.2,6.5,11.1,11.4,14.6C857.2,141.2,863.2,143,870.2,143z"/>
	<path class="st2" d="M934.3,87.1v63.7h-8.1V52.5h7.9v15.5h0.8c2.4-5.1,6.2-9.1,11.5-12.2c5.3-3.1,11.5-4.6,18.8-4.6
		c6.9,0,12.9,1.4,18.1,4.2c5.2,2.8,9.3,6.8,12.2,12s4.4,11.3,4.4,18.5v64.8h-8.1V86.3c0-8.4-2.6-15.1-7.7-20.2
		c-5.2-5.1-12-7.6-20.4-7.6c-5.7,0-10.7,1.2-15.2,3.6c-4.4,2.4-7.9,5.7-10.4,10C935.6,76.4,934.3,81.4,934.3,87.1z"/>
</g>
</svg>
