<?xml version="1.0" encoding="utf-8"?>
<!-- Generator: Adobe Illustrator 25.4.1, SVG Export Plug-In . SVG Version: 6.00 Build 0)  -->
<svg version="1.1" id="Layer_1" xmlns="http://www.w3.org/2000/svg" xmlns:xlink="http://www.w3.org/1999/xlink" x="0px" y="0px"
	 viewBox="0 0 103 10" style="enable-background:new 0 0 103 10;" xml:space="preserve">
<style type="text/css">
	.st0{fill:#606060;}
</style>
<g>
	<path class="st0" d="M1.7,8V2.2h3.6V3H2.6v1.8h2.6v0.8H2.6v1.8h2.8V8H1.7z"/>
	<path class="st0" d="M10.1,3.7c0-0.3-0.2-0.5-0.4-0.6C9.5,2.9,9.2,2.9,8.9,2.9c-0.2,0-0.4,0-0.6,0.1S7.9,3.2,7.9,3.3
		C7.8,3.4,7.7,3.6,7.7,3.7c0,0.1,0,0.3,0.1,0.4C7.9,4.2,8,4.3,8.1,4.3s0.2,0.1,0.3,0.2s0.2,0.1,0.4,0.1l0.6,0.1
		c0.2,0,0.4,0.1,0.6,0.2c0.2,0.1,0.4,0.2,0.5,0.3c0.2,0.1,0.3,0.3,0.4,0.5C11,5.9,11,6.1,11,6.4c0,0.3-0.1,0.6-0.3,0.9
		c-0.2,0.3-0.4,0.5-0.7,0.6C9.7,8,9.3,8.1,8.9,8.1C8.4,8.1,8,8,7.7,7.9C7.4,7.8,7.2,7.6,7,7.3C6.8,7.1,6.7,6.8,6.7,6.4h0.9
		c0,0.2,0.1,0.4,0.2,0.5C7.9,7.1,8,7.2,8.2,7.2c0.2,0.1,0.4,0.1,0.6,0.1c0.2,0,0.5,0,0.7-0.1C9.7,7.1,9.9,7,10,6.9
		c0.1-0.1,0.2-0.3,0.2-0.5c0-0.2,0-0.3-0.1-0.4C9.9,5.9,9.8,5.8,9.6,5.7S9.2,5.6,9,5.5L8.3,5.3C7.9,5.2,7.5,5,7.2,4.8
		C7,4.5,6.8,4.2,6.8,3.8c0-0.3,0.1-0.6,0.3-0.9c0.2-0.2,0.4-0.4,0.7-0.6s0.7-0.2,1.1-0.2c0.4,0,0.7,0.1,1,0.2s0.5,0.3,0.7,0.6
		c0.2,0.2,0.3,0.5,0.3,0.8H10.1z"/>
	<path class="st0" d="M12.2,3V2.2h4.5V3h-1.8V8H14V3H12.2z"/>
	<path class="st0" d="M17.9,8h-0.9L19,2.2h1L22.1,8h-0.9l-1.6-4.8h0L17.9,8z M18,5.7h3v0.7h-3V5.7z"/>
	<path class="st0" d="M23.4,8V2.2h2.1c0.4,0,0.8,0.1,1,0.2c0.3,0.1,0.5,0.3,0.6,0.5c0.1,0.2,0.2,0.5,0.2,0.8c0,0.2,0,0.4-0.1,0.6
		c-0.1,0.2-0.2,0.3-0.4,0.4c-0.1,0.1-0.3,0.2-0.5,0.2V5c0.2,0,0.4,0.1,0.6,0.2c0.2,0.1,0.3,0.3,0.5,0.5c0.1,0.2,0.2,0.5,0.2,0.8
		c0,0.3-0.1,0.6-0.2,0.8c-0.1,0.2-0.4,0.4-0.6,0.6C26.4,7.9,26,8,25.6,8H23.4z M24.2,4.7h1.2c0.2,0,0.4,0,0.5-0.1
		c0.2-0.1,0.3-0.2,0.4-0.3s0.1-0.3,0.1-0.5c0-0.2-0.1-0.4-0.3-0.6c-0.2-0.2-0.4-0.2-0.8-0.2h-1.2V4.7z M24.2,7.3h1.3
		c0.4,0,0.7-0.1,0.9-0.2s0.3-0.4,0.3-0.6c0-0.2,0-0.4-0.1-0.5c-0.1-0.2-0.2-0.3-0.4-0.4s-0.4-0.1-0.6-0.1h-1.3V7.3z"/>
	<path class="st0" d="M29,8V2.2h0.9v5.1h2.6V8H29z"/>
	<path class="st0" d="M34.8,2.2V8h-0.9V2.2H34.8z"/>
	<path class="st0" d="M39.6,3.7c0-0.3-0.2-0.5-0.4-0.6c-0.2-0.1-0.5-0.2-0.8-0.2c-0.2,0-0.4,0-0.6,0.1s-0.3,0.2-0.4,0.3
		c-0.1,0.1-0.1,0.3-0.1,0.4c0,0.1,0,0.3,0.1,0.4c0.1,0.1,0.2,0.2,0.3,0.3s0.2,0.1,0.3,0.2s0.2,0.1,0.4,0.1l0.6,0.1
		c0.2,0,0.4,0.1,0.6,0.2C39.7,5,39.8,5.1,40,5.3c0.2,0.1,0.3,0.3,0.4,0.5c0.1,0.2,0.2,0.4,0.2,0.7c0,0.3-0.1,0.6-0.3,0.9
		c-0.2,0.3-0.4,0.5-0.7,0.6c-0.3,0.1-0.7,0.2-1.2,0.2c-0.4,0-0.8-0.1-1.1-0.2c-0.3-0.1-0.6-0.3-0.7-0.6c-0.2-0.3-0.3-0.6-0.3-0.9
		h0.9c0,0.2,0.1,0.4,0.2,0.5c0.1,0.1,0.3,0.2,0.5,0.3c0.2,0.1,0.4,0.1,0.6,0.1c0.2,0,0.5,0,0.7-0.1c0.2-0.1,0.3-0.2,0.5-0.3
		c0.1-0.1,0.2-0.3,0.2-0.5c0-0.2,0-0.3-0.1-0.4c-0.1-0.1-0.2-0.2-0.4-0.3s-0.4-0.1-0.6-0.2l-0.7-0.2c-0.5-0.1-0.8-0.3-1.1-0.6
		c-0.3-0.2-0.4-0.6-0.4-1c0-0.3,0.1-0.6,0.3-0.9c0.2-0.2,0.4-0.4,0.7-0.6s0.7-0.2,1.1-0.2c0.4,0,0.7,0.1,1,0.2s0.5,0.3,0.7,0.6
		c0.2,0.2,0.3,0.5,0.3,0.8H39.6z"/>
	<path class="st0" d="M42,8V2.2h0.9v2.5h2.9V2.2h0.9V8h-0.9V5.5h-2.9V8H42z"/>
	<path class="st0" d="M48.4,8V2.2H52V3h-2.8v1.8h2.6v0.8h-2.6v1.8H52V8H48.4z"/>
	<path class="st0" d="M55.5,8h-1.9V2.2h1.9c0.6,0,1.1,0.1,1.5,0.3s0.7,0.6,0.9,1c0.2,0.4,0.3,1,0.3,1.6c0,0.6-0.1,1.1-0.3,1.6
		s-0.5,0.8-1,1S56.1,8,55.5,8z M54.5,7.2h1c0.4,0,0.8-0.1,1.1-0.3c0.3-0.2,0.5-0.4,0.7-0.7c0.1-0.3,0.2-0.7,0.2-1.2
		c0-0.5-0.1-0.8-0.2-1.2c-0.1-0.3-0.4-0.6-0.6-0.7C56.2,3,55.9,3,55.5,3h-1V7.2z"/>
	<path class="st0" d="M64,2.2V8h-0.9V3.1h0L61.7,4V3.1l1.5-0.9H64z"/>
	<path class="st0" d="M67.8,2.1c0.3,0,0.5,0,0.8,0.1s0.5,0.2,0.7,0.5c0.2,0.2,0.4,0.5,0.5,0.9c0.1,0.4,0.2,0.8,0.2,1.3
		c0,0.5-0.1,1-0.2,1.4c-0.1,0.4-0.2,0.7-0.4,1c-0.2,0.3-0.4,0.5-0.7,0.6c-0.3,0.1-0.6,0.2-0.9,0.2c-0.3,0-0.7-0.1-0.9-0.2
		c-0.3-0.1-0.5-0.3-0.7-0.6s-0.3-0.5-0.3-0.8h0.9c0.1,0.2,0.2,0.5,0.3,0.6c0.2,0.2,0.4,0.2,0.7,0.2c0.4,0,0.8-0.2,1-0.6
		c0.2-0.4,0.4-0.9,0.4-1.6h0c-0.1,0.2-0.2,0.3-0.4,0.4c-0.1,0.1-0.3,0.2-0.5,0.3S67.8,6,67.6,6c-0.3,0-0.6-0.1-0.9-0.2
		c-0.3-0.2-0.5-0.4-0.7-0.7c-0.2-0.3-0.2-0.6-0.2-1c0-0.4,0.1-0.7,0.3-1c0.2-0.3,0.4-0.5,0.7-0.7C67,2.2,67.4,2.1,67.8,2.1z
		 M67.8,2.8c-0.2,0-0.4,0.1-0.6,0.2c-0.2,0.1-0.3,0.3-0.4,0.4c-0.1,0.2-0.2,0.4-0.2,0.6c0,0.2,0,0.4,0.1,0.6S67,5,67.2,5.1
		c0.2,0.1,0.4,0.2,0.6,0.2c0.2,0,0.3,0,0.5-0.1c0.1-0.1,0.3-0.2,0.4-0.3c0.1-0.1,0.2-0.2,0.3-0.4C68.9,4.4,69,4.2,69,4.1
		c0-0.2-0.1-0.4-0.2-0.6S68.6,3.1,68.4,3C68.2,2.9,68,2.8,67.8,2.8z"/>
	<path class="st0" d="M73.2,8.1c-0.4,0-0.8-0.1-1.1-0.2c-0.3-0.1-0.6-0.3-0.7-0.6s-0.3-0.5-0.3-0.8c0-0.2,0-0.5,0.2-0.7
		s0.2-0.4,0.4-0.5S72.1,5,72.3,5v0c-0.3-0.1-0.5-0.2-0.7-0.5c-0.2-0.2-0.3-0.5-0.3-0.8c0-0.3,0.1-0.6,0.2-0.8
		c0.2-0.2,0.4-0.4,0.7-0.6c0.3-0.1,0.6-0.2,1-0.2c0.4,0,0.7,0.1,1,0.2c0.3,0.1,0.5,0.3,0.7,0.6C75,3.1,75,3.4,75,3.7
		C75,4,75,4.3,74.8,4.5c-0.2,0.2-0.4,0.4-0.7,0.5v0c0.2,0,0.4,0.1,0.6,0.3s0.3,0.3,0.4,0.5c0.1,0.2,0.2,0.4,0.2,0.7
		c0,0.3-0.1,0.6-0.3,0.8c-0.2,0.2-0.4,0.4-0.7,0.6C73.9,8,73.6,8.1,73.2,8.1z M73.2,7.4c0.2,0,0.4,0,0.6-0.1
		c0.2-0.1,0.3-0.2,0.4-0.3s0.1-0.3,0.1-0.5c0-0.2-0.1-0.4-0.2-0.5c-0.1-0.2-0.2-0.3-0.4-0.4c-0.2-0.1-0.4-0.1-0.6-0.1
		c-0.2,0-0.4,0-0.6,0.1c-0.2,0.1-0.3,0.2-0.4,0.4C72.1,6,72,6.2,72,6.4c0,0.2,0,0.4,0.1,0.5s0.2,0.3,0.4,0.3
		C72.7,7.3,72.9,7.4,73.2,7.4z M73.2,4.7c0.2,0,0.4,0,0.5-0.1s0.3-0.2,0.4-0.3c0.1-0.1,0.1-0.3,0.1-0.5c0-0.2,0-0.3-0.1-0.5
		S73.9,3,73.7,2.9c-0.2-0.1-0.3-0.1-0.5-0.1c-0.2,0-0.4,0-0.5,0.1c-0.2,0.1-0.3,0.2-0.4,0.3c-0.1,0.1-0.1,0.3-0.1,0.5
		c0,0.2,0,0.3,0.1,0.5c0.1,0.1,0.2,0.2,0.4,0.3C72.8,4.6,73,4.7,73.2,4.7z"/>
	<path class="st0" d="M76.6,8V7.4l2-2c0.2-0.2,0.4-0.4,0.5-0.6c0.1-0.2,0.2-0.3,0.3-0.5c0.1-0.2,0.1-0.3,0.1-0.5
		c0-0.2,0-0.4-0.1-0.5S79.1,3,78.9,3s-0.3-0.1-0.5-0.1c-0.2,0-0.4,0-0.5,0.1c-0.2,0.1-0.3,0.2-0.4,0.4c-0.1,0.2-0.1,0.3-0.1,0.5
		h-0.8c0-0.4,0.1-0.7,0.2-0.9c0.2-0.3,0.4-0.5,0.7-0.6c0.3-0.1,0.6-0.2,1-0.2c0.4,0,0.7,0.1,1,0.2c0.3,0.1,0.5,0.3,0.7,0.6
		s0.2,0.5,0.2,0.8c0,0.2,0,0.4-0.1,0.6c-0.1,0.2-0.2,0.4-0.4,0.7c-0.2,0.3-0.5,0.6-0.8,0.9l-1.2,1.2v0h2.6V8H76.6z"/>
</g>
</svg>
